<?xml version="1.0" encoding="UTF-8" standalone="no"?>
<!-- Created with Inkscape (http://www.inkscape.org/) -->

<svg
   xmlns:dc="http://purl.org/dc/elements/1.1/"
   xmlns:cc="http://creativecommons.org/ns#"
   xmlns:rdf="http://www.w3.org/1999/02/22-rdf-syntax-ns#"
   xmlns:svg="http://www.w3.org/2000/svg"
   xmlns="http://www.w3.org/2000/svg"
   xmlns:sodipodi="http://sodipodi.sourceforge.net/DTD/sodipodi-0.dtd"
   xmlns:inkscape="http://www.inkscape.org/namespaces/inkscape"
   id="svg3039"
   version="1.1"
   inkscape:version="0.48.4 r9939"
   width="667.69727"
   height="668.9339"
   sodipodi:docname="Icon.svg"
   inkscape:export-filename="/home/gavin/Pictures/Dev Icons/solvesAll/Icon.png"
   inkscape:export-xdpi="90"
   inkscape:export-ydpi="90">
  <metadata
     id="metadata3045">
    <rdf:RDF>
      <cc:Work
         rdf:about="">
        <dc:format>image/svg+xml</dc:format>
        <dc:type
           rdf:resource="http://purl.org/dc/dcmitype/StillImage" />
        <dc:title />
      </cc:Work>
    </rdf:RDF>
  </metadata>
  <defs
     id="defs3043" />
  <sodipodi:namedview
     pagecolor="#000000"
     bordercolor="#666666"
     borderopacity="1"
     objecttolerance="10"
     gridtolerance="10"
     guidetolerance="10"
     inkscape:pageopacity="0"
     inkscape:pageshadow="2"
     inkscape:window-width="1547"
     inkscape:window-height="876"
     id="namedview3041"
     showgrid="false"
     showguides="true"
     inkscape:guide-bbox="true"
     fit-margin-top="0"
     fit-margin-left="0"
     fit-margin-right="0"
     fit-margin-bottom="0"
     inkscape:zoom="4"
     inkscape:cx="662.86135"
     inkscape:cy="115.75319"
     inkscape:window-x="53"
     inkscape:window-y="148"
     inkscape:window-maximized="1"
     inkscape:current-layer="layer1">
    <sodipodi:guide
       orientation="0,1"
       position="358.66089,888.32099"
       id="guide3862" />
    <sodipodi:guide
       orientation="0,1"
       position="242.01245,826.25458"
       id="guide3882" />
  </sodipodi:namedview>
  <g
     inkscape:groupmode="layer"
     id="layer1"
     inkscape:label="Layer"
     transform="translate(79.653081,-274.30501)">
    <path
       style="fill:#258ecd;fill-opacity:1;stroke:none"
       d="m -33.431465,327.61225 c -40.942975,64.7974 -60.413607,338.02078 -28.777975,487.74893 8.608493,40.7431 32.343945,70.16593 48.081809,86.12092 7.8850676,6.84101 32.543039,19.51793 71.682307,26.01142 52.133954,8.64942 127.832204,10.39271 203.180654,12.13925 113.24902,2.62505 227.18231,-4.82649 273.00183,-43.57686 15.14181,-17.8016 30.09459,-47.51248 38.04084,-86.27989 C 583.49089,752.63226 584.37824,677.2771 584.12579,603.35345 583.73519,488.974 565.38165,379.02908 533.50671,329.01933 435.98938,264.70833 42.116763,264.88308 -33.431465,327.61225 z"
       id="path4323"
       inkscape:connector-curvature="0"
       sodipodi:nodetypes="cscsscsscc" />
  </g>
  <g
     inkscape:groupmode="layer"
     id="layer3"
     inkscape:label="Layer#2"
     transform="translate(79.653081,-274.30501)">
    <path
       style="fill:#0d77b6;fill-opacity:1;stroke:none"
       d="m -9.4461765,314.19805 -45.9046225,61.43897 -14.524315,80.2036 651.695544,0.39488 -13.25439,-77.73224 -54.4441,-67.55499 -76.10238,-28.24805 -375.515916,-1.2168 z"
       id="path4323-7"
       inkscape:connector-curvature="0"
       inkscape:transform-center-x="968"
       inkscape:transform-center-y="-150"
       sodipodi:nodetypes="ccccccccc" />
  </g>
  <g
     inkscape:groupmode="layer"
     id="layer2"
     inkscape:label="Layer#1"
     transform="translate(79.653081,-274.30501)">
    <rect
       style="fill:none;stroke:#ffffff;stroke-width:15.60000038;stroke-linecap:round;stroke-linejoin:miter;stroke-miterlimit:4;stroke-opacity:1;stroke-dasharray:none"
       id="rect3049"
       width="652.09729"
       height="653.33392"
       x="-71.853081"
       y="282.10501"
       ry="158.12396" />
    <path
       style="fill:none;stroke:#ffffff;stroke-width:15.60000038;stroke-linecap:butt;stroke-linejoin:miter;stroke-miterlimit:4;stroke-opacity:1;stroke-dasharray:none"
       d="m -71.353,455.77379 650.4198,0"
       id="path3819"
       inkscape:connector-curvature="0"
       sodipodi:nodetypes="cc" />
    <rect
       style="fill:#0d77b6;fill-opacity:1;stroke:#ffffff;stroke-width:4;stroke-linecap:round;stroke-linejoin:miter;stroke-miterlimit:4;stroke-opacity:0.99130435;stroke-dasharray:none"
       id="rect3821"
       width="93.607254"
       height="62.404152"
       x="4.0319643"
       y="512.69403"
       ry="14.734289" />
    <rect
       style="fill:#0d77b6;fill-opacity:1;stroke:#ffffff;stroke-width:4;stroke-linecap:round;stroke-linejoin:miter;stroke-miterlimit:4;stroke-opacity:0.99130435;stroke-dasharray:none"
       id="rect3821-7"
       width="93.607254"
       height="62.404152"
       x="139.33633"
       y="512.69226"
       ry="14.734289" />
    <rect
       style="fill:#0d77b6;fill-opacity:1;stroke:#ffffff;stroke-width:4;stroke-linecap:round;stroke-linejoin:miter;stroke-miterlimit:4;stroke-opacity:0.99130435;stroke-dasharray:none"
       id="rect3821-7-2"
       width="93.607254"
       height="62.404152"
       x="271.46619"
       y="512.69226"
       ry="14.734289" />
    <rect
       style="fill:#0d77b6;fill-opacity:1;stroke:#ffffff;stroke-width:4;stroke-linecap:round;stroke-linejoin:miter;stroke-miterlimit:4;stroke-opacity:0.99130435;stroke-dasharray:none"
       id="rect3821-7-2-8"
       width="93.607254"
       height="62.404152"
       x="409.72968"
       y="512.69226"
       ry="14.734289" />
    <rect
       style="fill:#0d77b6;fill-opacity:1;stroke:#ffffff;stroke-width:4;stroke-linecap:round;stroke-linejoin:miter;stroke-miterlimit:4;stroke-opacity:0.99130435;stroke-dasharray:none"
       id="rect3821-4"
       width="93.607254"
       height="62.404152"
       x="4.0306349"
       y="611.70355"
       ry="14.734289" />
    <rect
       style="fill:#0d77b6;fill-opacity:1;stroke:#ffffff;stroke-width:4;stroke-linecap:round;stroke-linejoin:miter;stroke-miterlimit:4;stroke-opacity:0.99130435;stroke-dasharray:none"
       id="rect3821-7-6"
       width="93.607254"
       height="62.404152"
       x="139.33499"
       y="611.7019"
       ry="14.734289" />
    <rect
       style="fill:#0d77b6;fill-opacity:1;stroke:#ffffff;stroke-width:4;stroke-linecap:round;stroke-linejoin:miter;stroke-miterlimit:4;stroke-opacity:0.99130435;stroke-dasharray:none"
       id="rect3821-7-2-0"
       width="93.607254"
       height="62.404152"
       x="271.46494"
       y="611.7019"
       ry="14.734289" />
    <rect
       style="fill:#0d77b6;fill-opacity:1;stroke:#ffffff;stroke-width:4;stroke-linecap:round;stroke-linejoin:miter;stroke-miterlimit:4;stroke-opacity:0.99130435;stroke-dasharray:none"
       id="rect3821-7-2-8-5"
       width="93.607254"
       height="62.404152"
       x="409.72839"
       y="611.7019"
       ry="14.734289" />
    <rect
       style="fill:#0d77b6;fill-opacity:1;stroke:#ffffff;stroke-width:4;stroke-linecap:round;stroke-linejoin:miter;stroke-miterlimit:4;stroke-opacity:0.99130435;stroke-dasharray:none"
       id="rect3821-4-2"
       width="93.607254"
       height="62.404152"
       x="4.0306349"
       y="706.7254"
       ry="14.734289" />
    <rect
       style="fill:#0d77b6;fill-opacity:1;stroke:#ffffff;stroke-width:4;stroke-linecap:round;stroke-linejoin:miter;stroke-miterlimit:4;stroke-opacity:0.99130435;stroke-dasharray:none"
       id="rect3821-7-6-6"
       width="93.607254"
       height="62.404152"
       x="139.33495"
       y="706.72375"
       ry="14.734289" />
    <rect
       style="fill:#0d77b6;fill-opacity:1;stroke:#ffffff;stroke-width:4;stroke-linecap:round;stroke-linejoin:miter;stroke-miterlimit:4;stroke-opacity:0.99130435;stroke-dasharray:none"
       id="rect3821-7-2-0-3"
       width="93.607254"
       height="62.404152"
       x="271.46481"
       y="706.72375"
       ry="14.734289" />
    <rect
       style="fill:#0d77b6;fill-opacity:1;stroke:#ffffff;stroke-width:4;stroke-linecap:round;stroke-linejoin:miter;stroke-miterlimit:4;stroke-opacity:0.99130435;stroke-dasharray:none"
       id="rect3821-7-2-8-5-9"
       width="93.607254"
       height="62.404152"
       x="409.72827"
       y="706.72375"
       ry="14.734289" />
    <rect
       style="fill:#0d77b6;fill-opacity:1;stroke:#ffffff;stroke-width:4;stroke-linecap:round;stroke-linejoin:miter;stroke-miterlimit:4;stroke-opacity:0.99130435;stroke-dasharray:none"
       id="rect3821-4-2-4"
       width="93.607254"
       height="62.404152"
       x="4.0306349"
       y="799.21729"
       ry="14.734289" />
    <rect
       style="fill:#0d77b6;fill-opacity:1;stroke:#ffffff;stroke-width:4;stroke-linecap:round;stroke-linejoin:miter;stroke-miterlimit:4;stroke-opacity:0.99130435;stroke-dasharray:none"
       id="rect3821-7-6-6-6"
       width="93.607254"
       height="62.404152"
       x="139.33495"
       y="799.21552"
       ry="14.734289" />
    <rect
       style="fill:#0d77b6;fill-opacity:1;stroke:#ffffff;stroke-width:4;stroke-linecap:round;stroke-linejoin:miter;stroke-miterlimit:4;stroke-opacity:0.99130435;stroke-dasharray:none"
       id="rect3821-7-2-0-3-9"
       width="93.607254"
       height="62.404152"
       x="271.46481"
       y="799.21552"
       ry="14.734289" />
    <rect
       style="fill:#0d77b6;fill-opacity:1;stroke:#ffffff;stroke-width:4;stroke-linecap:round;stroke-linejoin:miter;stroke-miterlimit:4;stroke-opacity:0.99130435;stroke-dasharray:none"
       id="rect3821-7-2-8-5-9-1"
       width="93.607254"
       height="62.404152"
       x="409.72827"
       y="799.21552"
       ry="14.734289" />
    <g
       id="g4163">
      <g
         transform="translate(-39.913839,324.13682)"
         id="g4585">
        <path
           style="fill:#ffffff;fill-opacity:1;stroke:none"
           d="m 325.10912,112.30626 c -10.77286,-3.51351 -16.37001,-10.97318 -16.29169,-21.712955 0.0865,-11.86185 7.39355,-22.875218 19.11931,-28.817108 9.86543,-4.99919 18.44377,-6.74757 35.90836,-7.3186 l 16.22951,-0.53065 5.64209,-9.07799 c 13.78838,-22.18519 25.25957,-33.56696 39.39522,-39.0881223 6.61687,-2.584445 18.3502,-2.48957 23.57057,0.190592 7.10301,3.6467203 8.08428,6.4929333 2.65001,7.6864993 -4.94321,1.08571 -12.34211,7.649701 -15.83445,14.047641 -3.40581,6.23943 -8.79231,23.26287 -8.21426,25.96025 0.29345,1.36934 0.72767,1.34554 3.75691,-0.20598 4.96961,-2.54533 5.91301,-4.56544 3.80142,-8.14008 -0.95315,-1.61355 -1.47176,-3.61455 -1.15245,-4.44665 1.5649,-4.07806 8.28088,-2.0963 9.59887,2.83246 1.82686,6.83177 -4.01014,14.24828 -13.034,16.56103 l -5.06004,1.29685 -1.58225,7.07106 c -3.86309,17.264128 -13.17308,41.571053 -15.92246,41.571053 -0.62465,0 -5.42282,-2.71607 -6.07201,-4.43595 -1.15186,-3.05162 2.44805,-1.8074 -2.71328,-1.37199 -4.99492,0.42137 -7.60342,1.66829 -15.5858,7.45039 -1.5841,1.14745 -2.61831,1.34235 -3.33264,0.62802 -0.71432,-0.71432 -7.64163,-2.46507 -4.11042,-5.7681 2.81606,-2.6341 15.32006,-7.86233 17.77077,-11.548715 4.57383,-6.88003 15.44357,-28.467388 15.46,-30.703648 0.007,-0.91155 -2.49537,-1.2463 -9.24082,-1.23635 -5.0875,0.008 -10.22537,0.27529 -11.4175,0.59506 -1.43809,0.38575 -4.46674,4.45922 -9,12.10481 -11.93416,20.127653 -21.89037,29.914443 -34.8325,34.239793 -7.00151,2.33994 -15.93418,3.33246 -19.50647,2.16738 z m 14.90446,-10.19372 c 5.9156,-2.61676 19.89092,-16.921765 27.52729,-28.176703 3.25891,-4.80317 5.66867,-8.98966 5.35502,-9.3033 -1.01133,-1.01134 -24.67827,1.60876 -32.42247,3.58939 -9.37037,2.39654 -16.81627,6.38706 -20.20328,10.827658 -3.62587,4.75376 -4.24067,15.07336 -1.1881,19.942525 3.9836,6.35427 11.19167,7.42883 20.93154,3.12043 z m 78.18881,-59.655043 c 7.33194,-18.59407 12.59751,-26.489973 20.4132,-30.610297 l 3,-1.581558 -4.07186,-0.04004 c -12.94808,-0.127316 -26.26676,11.199825 -39.67716,33.744275 -2.57429,4.32768 -4.95442,8.58226 -5.28918,9.45463 -0.79985,2.08438 1.0356,2.502 11.625,2.64506 l 8.58681,0.116 z M 115.37078,111.05777 c -4.85717,-1.38718 -6.68623,-4.9369 -6.57617,-12.76255 0.22123,-15.729505 10.97473,-44.632663 23.96596,-64.415473 6.80492,-10.3624 18.53713,-21.686518 26.4139,-25.495101 15.74104,-7.6111203 33.40269,-5.7932453 35.26645,3.6299 1.08265,5.47388 -4.0355,9.362141 -9.39906,7.140481 -3.05237,-1.26433 -3.20899,-1.567341 -3.34379,-6.46946 -0.0732,-2.66338 -0.46498,-3.03649 -3.49131,-3.325204 -8.51773,-0.812597 -20.75183,8.494427 -30.57772,23.261824 -12.10797,18.19715 -31.43088,65.124263 -29.20467,70.925683 1.15765,3.01678 4.48163,1.74505 8.78822,-3.3623 2.31884,-2.75001 1.6014,-9.265476 2.34031,-9.265476 4.00379,0 1.94936,14.662476 -3.82634,18.155806 -4.33133,2.61972 -6.60126,3.05414 -10.35578,1.98187 z m 50.113,0.0908 c -4.15487,-1.27217 -9.99955,-7.8802 -11.32561,-12.80481 -1.51646,-5.631725 0.1233,-12.072025 5.51463,-21.659073 7.31719,-13.01171 9.70888,-18.68999 10.21369,-24.2491 0.40202,-4.42703 0.21508,-5.25 -1.19253,-5.25 -1.77297,0 -4.76042,2.74615 -8.13359,7.47662 -2.43436,3.41387 -9.50963,0.102805 -9.50963,-4.150565 0,-3.958 10.93323,-7.728495 16.53402,-9.867455 3.73395,-1.42601 4.72778,-1.4692 7.09649,-0.30843 4.61085,2.25952 6.9541,6.35621 6.78554,11.86314 -0.20501,6.69838 -2.52612,13.18321 -10.50705,29.355208 -6.73471,13.64677 -7.86267,17.859825 -5.80898,21.697195 1.39677,2.60989 7.0611,2.55015 12.60357,-0.13291 5.09828,-2.46802 13.54686,-11.411505 18.27849,-19.349195 5.06453,-8.496168 10.04666,-21.476298 10.06595,-26.225218 0.015,-3.69099 -0.28238,-4.21626 -2.73318,-4.82791 -6.36002,-1.58728 -8.12718,-6.74423 -3.79545,-11.07596 2.8625,-2.8625 3.65706,-2.96531 7.51182,-0.97193 5.72281,2.95938 7.15808,16.46421 3.09104,29.08442 -8.99193,27.902313 -28.80839,46.258453 -44.68922,41.395953 z m 277.88701,-0.0908 c -4.85717,-1.38718 -6.68623,-4.9369 -6.57617,-12.76255 0.22123,-15.729505 10.97473,-44.632663 23.96596,-64.415473 6.80492,-10.3624 18.53713,-21.686518 26.4139,-25.495101 12.33077,-5.9621863 27.26884,-6.3258933 32.79622,-0.798511 l 2.38079,2.380786 5.13205,-2.323536 c 11.18202,-5.0626603 26.03872,-5.2427523 31.21658,-0.378404 6.32333,5.940457 1.17475,15.134586 -6.65825,11.890046 -3.05237,-1.26433 -3.20899,-1.567341 -3.34379,-6.46946 -0.0732,-2.66338 -0.46498,-3.03649 -3.49131,-3.325204 -8.51773,-0.812597 -20.75183,8.494427 -30.57772,23.261824 -12.10797,18.19715 -31.43088,65.124263 -29.20467,70.925683 1.15765,3.01678 4.48163,1.74505 8.78822,-3.3623 4.56636,-5.415435 -0.1793,-10.996229 2.75824,-8.853775 2.83606,2.068443 -1.41165,16.460605 -6.16434,18.761345 -3.54429,1.71577 -4.85969,1.8846 -7.97699,1.02388 -6.74235,-1.86166 -8.53882,-7.93916 -6.24126,-21.114345 3.54431,-20.324538 16.39341,-48.490168 29.46875,-64.596368 4.10746,-5.05957 4.90776,-6.63406 4.1201,-8.105799 -0.53764,-1.004593 -0.88392,-3.128924 -0.76952,-4.720737 0.18772,-2.61188 -0.12451,-2.925927 -3.20081,-3.219408 -8.51773,-0.812597 -20.75183,8.494427 -30.57772,23.261824 -12.10797,18.19715 -31.43088,65.124263 -29.20467,70.925683 1.15765,3.01678 4.48163,1.74505 8.78822,-3.3623 2.31884,-2.75001 1.76236,-9.064275 2.50127,-9.064275 4.00379,0 1.7884,14.461275 -3.9873,17.954605 -4.33133,2.61972 -6.60126,3.05414 -10.35578,1.98187 z M 13.679877,110.06215 C 2.5219473,107.4468 -2.5320497,95.254735 5.274974,89.786475 c 3.090962,-2.16499 6.427132,-2.01439 8.840611,0.39909 2.608849,2.60885 2.544347,6.414945 -0.151275,8.926305 -2.985676,2.78158 -1.001814,5.07369 4.391367,5.07369 3.307558,0 4.663423,-0.66822 7.877555,-3.88234 3.398374,-3.39839 3.882353,-4.462965 3.882353,-8.539845 0,-4.77069 -2.309244,-10.50917 -6.469936,-16.077808 -7.136654,-9.55165 -8.74689,-18.17703 -4.635344,-24.82965 2.595482,-4.19958 9.228576,-8.46128 15.288837,-9.82293 5.698821,-1.28044 13.87625,0.52289 16.882641,3.72304 4.81592,5.12632 1.55381,14.55492 -4.509227,13.0332 -3.314554,-0.8319 -5.187939,-4.55617 -3.695036,-7.34568 0.587234,-1.09726 0.78353,-2.27918 0.436215,-2.6265 -1.193724,-1.19372 -8.400596,-0.62986 -11.333323,0.88671 -6.016491,3.11125 -5.187676,9.92048 2.426181,19.93257 7.470581,9.823698 8.608992,12.423668 8.608992,19.661718 0,10.673875 -6.65774,18.535325 -18.242111,21.540275 -5.804116,1.50557 -5.731493,1.50412 -11.193597,0.22383 z m 47.271786,0.20099 c -7.53102,-1.51026 -11.2166,-5.53811 -12.82424,-14.01516 -2.446144,-12.898465 3.38853,-28.269963 15.57057,-41.020753 8.906723,-9.32256 15.955373,-13.19119 24.307623,-13.34117 7.627494,-0.13696 12.456304,2.32799 15.826584,8.07894 2.25709,3.85142 2.64116,5.6475 2.59925,12.15525 -0.10216,15.86582 -7.68719,31.468418 -20.069544,41.283563 -7.07102,5.605 -17.554003,8.43481 -25.410243,6.85933 z m 12.585623,-8.47883 c 10.19511,-5.974725 19.5125,-27.060253 19.56094,-44.266953 0.023,-8.16566 -0.52154,-9.33179 -4.35749,-9.33179 -6.71419,0 -15.88562,9.65007 -23.150763,24.35895 -5.81118,11.765218 -8.16401,24.615433 -5.43921,29.706783 1.50702,2.81588 8.18208,2.58302 13.386523,-0.46699 z m 158.693784,7.92262 c -11.21797,-3.55587 -17.28904,-15.544145 -15.01686,-29.653105 1.38389,-8.593158 6.13671,-17.096928 13.93986,-24.941218 9.41426,-9.46392 22.70745,-15.15923 30.51122,-13.07218 6.70947,1.79439 8.91726,11.38918 4.57789,19.89504 -2.66773,5.22919 -5.26902,7.02124 -18.66116,12.85587 -6.36332,2.77234 -12.3306,6.124428 -14.21643,7.986008 -2.90459,2.86725 -3.25,3.80867 -3.25,8.85788 0,6.727745 2.08802,11.283335 5.57247,12.157885 4.2298,1.06161 9.57652,-0.37051 13.35062,-3.57595 8.625,-7.325455 10.17081,-8.337695 11.18458,-7.323925 0.68721,0.68721 1.9403,0.0905 3.87695,-1.84613 3.37407,-3.37408 7.17581,-3.70111 10.01538,-0.86154 2.60885,2.60885 2.54435,6.414945 -0.15127,8.926305 -2.98568,2.78158 -1.00182,5.07369 4.39136,5.07369 3.30756,0 4.66342,-0.66822 7.87756,-3.88234 3.39837,-3.39839 3.88235,-4.462965 3.88235,-8.539845 0,-4.77069 -2.30924,-10.50917 -6.46994,-16.077808 -7.13665,-9.55165 -8.74689,-18.17703 -4.63534,-24.82965 2.59548,-4.19958 9.22858,-8.46128 15.28884,-9.82293 5.69882,-1.28044 13.87625,0.52289 16.88264,3.72304 4.81592,5.12632 1.55381,14.55492 -4.50923,13.0332 -3.31455,-0.8319 -5.18794,-4.55617 -3.69503,-7.34568 0.58723,-1.09726 0.78353,-2.27918 0.43621,-2.6265 -1.19372,-1.19372 -8.4006,-0.62986 -11.33332,0.88671 -6.01649,3.11125 -5.18768,9.92048 2.42618,19.93257 7.47058,9.823698 8.60899,12.423668 8.60899,19.661718 0,7.802695 -3.00528,13.377795 -9.54717,17.710955 -12.19416,8.07708 -28.54721,4.96721 -31.49766,-5.98992 l -1.10735,-4.112405 -1.76187,2.897155 c -1.89618,3.11802 -6.75859,7.15337 -11.58595,9.61527 -4.60027,2.34608 -10.49046,2.83915 -15.38452,1.28783 z m 13.36779,-43.568293 c 9.30351,-5.49516 12.50673,-9.25902 12.51299,-14.70307 0.003,-2.95473 -0.27244,-3.25 -3.0361,-3.25 -8.62727,0 -19.64416,11.45964 -22.56578,23.47266 l -0.72296,2.97266 2.5879,-1.69567 c 1.42335,-0.93261 6.47413,-3.99107 11.22395,-6.79658 z"
           id="path3113"
           inkscape:connector-curvature="0"
           inkscape:export-filename="/home/gavin/Pictures/solvesAll/solvesAll.png"
           inkscape:export-xdpi="90"
           inkscape:export-ydpi="90"
           sodipodi:nodetypes="sssscssssssssssscssssssssccsssssscsssssscsssscssssssscssssssscssssssssssssssssssccssssscssscsssssssssssssssssssssssssssssssssssssssssssssssssssssssssssssssssssssssssssssssscsssscsscss" />
        <path
           style="fill:#47a3da;fill-opacity:1;stroke:#ffffff;stroke-width:1.89999998;stroke-miterlimit:4;stroke-opacity:1;stroke-dasharray:none"
           d="m 320.8466,108.45895 c -10.77286,-3.51351 -16.37001,-10.973181 -16.29169,-21.712965 0.0865,-11.86185 7.39355,-22.875214 19.11931,-28.817104 9.86543,-4.99919 18.44377,-6.74757 35.90836,-7.3186 l 16.22951,-0.53065 5.64209,-9.07799 c 13.78838,-22.18519 25.25957,-33.5669602 39.39522,-39.0881231 6.61687,-2.58444499 18.3502,-2.48956999 23.57057,0.190592 7.10301,3.6467209 8.08428,6.4929339 2.65001,7.6864999 -4.94321,1.0857102 -12.34211,7.6497012 -15.83445,14.0476412 -3.40581,6.23943 -8.79231,23.26287 -8.21426,25.96025 0.29345,1.36934 0.72767,1.34554 3.75691,-0.20598 4.96961,-2.54533 5.91301,-4.56544 3.80142,-8.14008 -0.95315,-1.61355 -1.47176,-3.61455 -1.15245,-4.44665 1.5649,-4.07806 8.28088,-2.0963 9.59887,2.83246 1.82686,6.83177 -4.01014,14.24828 -13.034,16.56103 l -5.06004,1.29685 -1.58225,7.07106 c -3.86309,17.264124 -13.17308,41.571059 -15.92246,41.571059 -0.62465,0 -1.66687,-1.40718 -2.31606,-3.12706 -1.15186,-3.05162 -1.3079,-3.11629 -6.46923,-2.68088 -4.99492,0.42137 -7.60342,1.66829 -15.5858,7.45039 -1.5841,1.14745 -2.61831,1.34235 -3.33264,0.62802 -0.71432,-0.71432 0.55318,-2.52198 4.08439,-5.82501 2.81606,-2.6341 7.12525,-7.805421 9.57596,-11.491815 4.57383,-6.88003 15.44357,-28.467384 15.46,-30.703644 0.007,-0.91155 -2.49537,-1.2463 -9.24082,-1.23635 -5.0875,0.008 -10.22537,0.27529 -11.4175,0.59506 -1.43809,0.38575 -4.46674,4.45922 -9,12.104814 -11.93416,20.12765 -21.89037,29.914445 -34.8325,34.239795 -7.00151,2.33994 -15.93418,3.33246 -19.50647,2.16738 z m 14.90446,-10.193721 c 5.9156,-2.61676 19.89092,-16.921774 27.52729,-28.176704 3.25891,-4.80317 5.66867,-8.989664 5.35502,-9.303304 -1.01133,-1.01134 -24.67827,1.60876 -32.42247,3.58939 -9.37037,2.396544 -16.81627,6.387064 -20.20328,10.827654 -3.62587,4.75376 -4.24067,15.07336 -1.1881,19.942534 3.9836,6.354271 11.19167,7.428831 20.93154,3.12043 z m 78.18881,-59.655048 c 7.33194,-18.59407 12.59751,-26.489973 20.4132,-30.6102972 l 3,-1.581558 -4.07186,-0.04004 c -12.94808,-0.127316 -26.26676,11.1998252 -39.67716,33.7442752 -2.57429,4.32768 -4.95442,8.58226 -5.28918,9.45463 -0.79985,2.08438 1.0356,2.502 11.625,2.64506 l 8.58681,0.116 5.41319,-13.72807 z M 111.10826,107.21046 c -4.85717,-1.38718 -6.68623,-4.9369 -6.57617,-12.762551 0.22123,-15.729514 10.97473,-44.632668 23.96596,-64.415478 6.80492,-10.3624 18.53713,-21.6865182 26.4139,-25.4951012 15.74104,-7.6111207 33.40269,-5.7932459 35.26645,3.6299 1.08265,5.4738802 -4.0355,9.3621412 -9.39906,7.1404812 -3.05237,-1.26433 -3.20899,-1.567341 -3.34379,-6.4694602 -0.0732,-2.66338 -0.46498,-3.03649 -3.49131,-3.325204 -8.51773,-0.812597 -20.75183,8.4944272 -30.57772,23.2618242 -12.10797,18.19715 -31.43088,65.124268 -29.20467,70.925688 1.15765,3.016781 4.48163,1.745051 8.78822,-3.3623 2.31884,-2.75001 4.82062,-5.000014 5.55953,-5.000014 4.00379,0 -1.26986,10.397015 -7.04556,13.890345 -4.33133,2.61972 -6.60126,3.05414 -10.35578,1.98187 z m 50.113,0.0908 c -4.15487,-1.27217 -9.99955,-7.880201 -11.32561,-12.804811 -1.51646,-5.631734 0.1233,-12.072034 5.51463,-21.659074 7.31719,-13.011714 9.70888,-18.689994 10.21369,-24.249104 0.40202,-4.42703 0.21508,-5.25 -1.19253,-5.25 -1.77297,0 -4.76042,2.74615 -8.13359,7.47662 -2.43436,3.41387 -4.44479,2.72059 -4.44479,-1.53278 0,-3.958 5.86839,-10.34628 11.46918,-12.48524 3.73395,-1.42601 4.72778,-1.4692 7.09649,-0.30843 4.61085,2.25952 6.9541,6.35621 6.78554,11.86314 -0.20501,6.69838 -2.52612,13.18321 -10.50705,29.355204 -6.73471,13.64677 -7.86267,17.859834 -5.80898,21.697204 1.39677,2.609891 7.0611,2.550151 12.60357,-0.13291 5.09828,-2.46802 13.54686,-11.411514 18.27849,-19.349204 5.06453,-8.49616 10.04666,-21.476294 10.06595,-26.225214 0.015,-3.69099 -0.28238,-4.21626 -2.73318,-4.82791 -6.36002,-1.58728 -8.12718,-6.74423 -3.79545,-11.07596 2.8625,-2.8625 3.65706,-2.96531 7.51182,-0.97193 5.72281,2.95938 7.15808,16.46421 3.09104,29.084424 -8.99193,27.902314 -28.80839,46.258455 -44.68922,41.395955 z m 277.88701,-0.0908 c -4.85717,-1.38718 -6.68623,-4.9369 -6.57617,-12.762551 0.22123,-15.729514 10.97473,-44.632668 23.96596,-64.415478 6.80492,-10.3624 18.53713,-21.6865182 26.4139,-25.4951012 12.33077,-5.9621869 27.26884,-6.3258939 32.79622,-0.798511 l 2.38079,2.380786 5.13205,-2.323536 c 11.18202,-5.0626609 26.03872,-5.2427529 31.21658,-0.378404 6.32333,5.940457 1.17475,15.1345862 -6.65825,11.8900462 -3.05237,-1.26433 -3.20899,-1.567341 -3.34379,-6.4694602 -0.0732,-2.66338 -0.46498,-3.03649 -3.49131,-3.325204 -8.51773,-0.812597 -20.75183,8.4944272 -30.57772,23.2618242 -12.10797,18.19715 -31.43088,65.124268 -29.20467,70.925688 1.15765,3.016781 4.48163,1.745051 8.78822,-3.3623 4.56636,-5.415444 6.90299,-6.328364 6.90299,-2.69701 0,3.51023 -5.5564,10.303841 -10.30909,12.604581 -3.54429,1.71577 -4.85969,1.8846 -7.97699,1.02388 -6.74235,-1.86166 -8.53882,-7.939161 -6.24126,-21.114355 3.54431,-20.32453 16.39341,-48.490164 29.46875,-64.596364 4.10746,-5.05957 4.90776,-6.63406 4.1201,-8.105799 -0.53764,-1.004593 -0.88392,-3.128924 -0.76952,-4.7207372 0.18772,-2.61188 -0.12451,-2.925927 -3.20081,-3.219408 -8.51773,-0.812597 -20.75183,8.4944272 -30.57772,23.2618242 -12.10797,18.19715 -31.43088,65.124268 -29.20467,70.925688 1.15765,3.016781 4.48163,1.745051 8.78822,-3.3623 2.31884,-2.75001 4.82062,-5.000014 5.55953,-5.000014 4.00379,0 -1.26986,10.397015 -7.04556,13.890345 -4.33133,2.61972 -6.60126,3.05414 -10.35578,1.98187 z M 9.4173551,106.21484 C -1.7405741,103.59949 -6.7945711,91.407415 1.0124521,85.939155 c 3.090962,-2.16499 6.427132,-2.01439 8.840611,0.39909 2.6088499,2.60885 2.5443479,6.414954 -0.151275,8.926314 -2.985676,2.78158 -1.001814,5.073691 4.3913679,5.073691 3.307558,0 4.663423,-0.668221 7.877555,-3.882341 3.398374,-3.39839 3.882353,-4.462974 3.882353,-8.539854 0,-4.77069 -2.309244,-10.50917 -6.469936,-16.0778 -7.136654,-9.551654 -8.746891,-18.177034 -4.635344,-24.829654 2.595482,-4.19958 9.228576,-8.46128 15.288837,-9.82293 5.698821,-1.28044 13.87625,0.52289 16.882641,3.72304 4.81592,5.12632 1.55381,14.55492 -4.509227,13.0332 -3.314554,-0.8319 -5.187939,-4.55617 -3.695036,-7.34568 0.587234,-1.09726 0.78353,-2.27918 0.436215,-2.6265 -1.193724,-1.19372 -8.400596,-0.62986 -11.333323,0.88671 -6.016491,3.11125 -5.187676,9.92048 2.426181,19.93257 7.470581,9.823694 8.608992,12.423664 8.608992,19.661714 0,10.673884 -6.65774,18.535335 -18.242111,21.540285 -5.804116,1.50557 -5.731493,1.50412 -11.1935979,0.22383 z m 47.2717869,0.20099 c -7.53102,-1.51026 -11.2166,-5.53811 -12.82424,-14.015165 -2.446144,-12.89847 3.38853,-28.269964 15.57057,-41.020754 8.906723,-9.32256 15.955373,-13.19119 24.307623,-13.34117 7.627492,-0.13696 12.456302,2.32799 15.826582,8.07894 2.257093,3.85142 2.641163,5.6475 2.599253,12.15525 -0.10216,15.865824 -7.687193,31.468414 -20.069545,41.283568 -7.07102,5.605001 -17.554003,8.434811 -25.410243,6.859331 z m 12.585623,-8.478831 c 10.19511,-5.974734 19.5125,-27.060254 19.56094,-44.266958 0.023,-8.16566 -0.52154,-9.33179 -4.35749,-9.33179 -6.71419,0 -15.88562,9.65007 -23.150763,24.358954 -5.81118,11.76521 -8.16401,24.615434 -5.43921,29.706784 1.50702,2.815881 8.18208,2.583021 13.386523,-0.46699 z m 158.693785,7.922621 c -11.21797,-3.55587 -17.28904,-15.544155 -15.01686,-29.653115 1.38389,-8.59315 6.13671,-17.096924 13.93986,-24.941214 9.41426,-9.46392 22.70745,-15.15923 30.51122,-13.07218 6.70947,1.79439 8.91726,11.38918 4.57789,19.89504 -2.66773,5.22919 -5.26902,7.021244 -18.66116,12.855874 -6.36332,2.77234 -12.3306,6.12442 -14.21643,7.986 -2.90459,2.86725 -3.25,3.80867 -3.25,8.85788 0,6.727754 2.08802,11.283344 5.57247,12.157894 4.2298,1.061611 9.57652,-0.37051 13.35062,-3.57595 8.625,-7.325464 10.17081,-8.337704 11.18458,-7.323934 0.68721,0.68721 1.9403,0.0905 3.87695,-1.84613 3.37407,-3.37408 7.17581,-3.70111 10.01538,-0.86154 2.60885,2.60885 2.54435,6.414954 -0.15127,8.926314 -2.98568,2.78158 -1.00182,5.073691 4.39136,5.073691 3.30756,0 4.66342,-0.668221 7.87756,-3.882341 3.39837,-3.39839 3.88235,-4.462974 3.88235,-8.539854 0,-4.77069 -2.30924,-10.50917 -6.46994,-16.0778 -7.13665,-9.551654 -8.74689,-18.177034 -4.63534,-24.829654 2.59548,-4.19958 9.22858,-8.46128 15.28884,-9.82293 5.69882,-1.28044 13.87625,0.52289 16.88264,3.72304 4.81592,5.12632 1.55381,14.55492 -4.50923,13.0332 -3.31455,-0.8319 -5.18794,-4.55617 -3.69503,-7.34568 0.58723,-1.09726 0.78353,-2.27918 0.43621,-2.6265 -1.19372,-1.19372 -8.4006,-0.62986 -11.33332,0.88671 -6.01649,3.11125 -5.18768,9.92048 2.42618,19.93257 7.47058,9.823694 8.60899,12.423664 8.60899,19.661714 0,7.8027 -3.00528,13.377804 -9.54717,17.710965 -12.19416,8.07708 -28.54721,4.96721 -31.49766,-5.989921 l -1.10735,-4.112414 -1.76187,2.897164 c -1.89618,3.11802 -6.75859,7.153371 -11.58595,9.615271 -4.60027,2.34608 -10.49046,2.83915 -15.38452,1.28783 z m 13.36779,-43.568299 c 9.30351,-5.49516 12.50673,-9.25902 12.51299,-14.70307 0.003,-2.95473 -0.27244,-3.25 -3.0361,-3.25 -8.62727,0 -19.64416,11.45964 -22.56578,23.472664 l -0.72296,2.97266 2.5879,-1.69567 c 1.42335,-0.93261 6.47413,-3.99107 11.22395,-6.796584 z"
           id="path3113-9"
           inkscape:connector-curvature="0"
           inkscape:export-filename="/home/gavin/Pictures/solvesAll/solvesAll.png"
           inkscape:export-xdpi="90"
           inkscape:export-ydpi="90" />
      </g>
    </g>
    <text
       xml:space="preserve"
       style="font-size:61.94775391px;font-style:normal;font-weight:normal;line-height:125%;letter-spacing:0px;word-spacing:0px;fill:#f9f9f9;fill-opacity:1;stroke:none;font-family:Sans"
       x="30.410948"
       y="567.13684"
       id="text4168"
       sodipodi:linespacing="125%"><tspan
         sodipodi:role="line"
         id="tspan4170"
         x="30.410948"
         y="567.13684">7 </tspan></text>
    <text
       xml:space="preserve"
       style="font-size:40px;font-style:normal;font-weight:normal;line-height:125%;letter-spacing:0px;word-spacing:0px;fill:#000000;fill-opacity:1;stroke:none;font-family:Sans"
       x="-93.75"
       y="532.25"
       id="text4172"
       sodipodi:linespacing="125%"><tspan
         sodipodi:role="line"
         id="tspan4174"
         x="-93.75"
         y="532.25" /></text>
    <text
       xml:space="preserve"
       style="font-size:61.94775391px;font-style:normal;font-weight:normal;line-height:125%;letter-spacing:0px;word-spacing:0px;fill:#f9f9f9;fill-opacity:1;stroke:none;font-family:Sans"
       x="165.12082"
       y="567.23901"
       id="text4168-9"
       sodipodi:linespacing="125%"><tspan
         sodipodi:role="line"
         id="tspan4170-4"
         x="165.12082"
         y="567.23901">8 </tspan></text>
    <text
       xml:space="preserve"
       style="font-size:61.94775391px;font-style:normal;font-weight:normal;line-height:125%;letter-spacing:0px;word-spacing:0px;fill:#f9f9f9;fill-opacity:1;stroke:none;font-family:Sans"
       x="298.88535"
       y="567.06744"
       id="text4168-90"
       sodipodi:linespacing="125%"><tspan
         sodipodi:role="line"
         id="tspan4170-3"
         x="298.88535"
         y="567.06744">9 </tspan></text>
    <text
       xml:space="preserve"
       style="font-size:61.94775391px;font-style:normal;font-weight:normal;line-height:125%;letter-spacing:0px;word-spacing:0px;fill:#f9f9f9;fill-opacity:1;stroke:none;font-family:Sans"
       x="434.5285"
       y="565.82483"
       id="text4168-0"
       sodipodi:linespacing="125%"><tspan
         sodipodi:role="line"
         id="tspan4170-0"
         x="434.5285"
         y="565.82483">C </tspan></text>
    <text
       xml:space="preserve"
       style="font-size:61.94775391px;font-style:normal;font-weight:normal;line-height:125%;letter-spacing:0px;word-spacing:0px;fill:#f9f9f9;fill-opacity:1;stroke:none;font-family:Sans"
       x="414.0224"
       y="665.52686"
       id="text4168-07"
       sodipodi:linespacing="125%"><tspan
         sodipodi:role="line"
         id="tspan4170-1"
         x="414.0224"
         y="665.52686">CE </tspan></text>
    <text
       xml:space="preserve"
       style="font-size:61.94775391px;font-style:normal;font-weight:normal;line-height:125%;letter-spacing:0px;word-spacing:0px;fill:#f9f9f9;fill-opacity:1;stroke:none;font-family:Sans"
       x="298.05688"
       y="665.52692"
       id="text4168-8"
       sodipodi:linespacing="125%"><tspan
         sodipodi:role="line"
         id="tspan4170-48"
         x="298.05688"
         y="665.52692">6 </tspan></text>
    <text
       xml:space="preserve"
       style="font-size:61.94775391px;font-style:normal;font-weight:normal;line-height:125%;letter-spacing:0px;word-spacing:0px;fill:#f9f9f9;fill-opacity:1;stroke:none;font-family:Sans"
       x="166.53505"
       y="664.81976"
       id="text4168-94"
       sodipodi:linespacing="125%"><tspan
         sodipodi:role="line"
         id="tspan4170-7"
         x="166.53505"
         y="664.81976">5 </tspan></text>
    <text
       xml:space="preserve"
       style="font-size:61.94775391px;font-style:normal;font-weight:normal;line-height:125%;letter-spacing:0px;word-spacing:0px;fill:#f9f9f9;fill-opacity:1;stroke:none;font-family:Sans"
       x="28.649206"
       y="665.52686"
       id="text4168-6"
       sodipodi:linespacing="125%"><tspan
         sodipodi:role="line"
         id="tspan4170-9"
         x="28.649206"
         y="665.52686">4 </tspan></text>
    <text
       xml:space="preserve"
       style="font-size:61.94775391px;font-style:normal;font-weight:normal;line-height:125%;letter-spacing:0px;word-spacing:0px;fill:#f9f9f9;fill-opacity:1;stroke:none;font-family:Sans"
       x="28.649214"
       y="761.69336"
       id="text4168-82"
       sodipodi:linespacing="125%"><tspan
         sodipodi:role="line"
         id="tspan4170-5"
         x="28.649214"
         y="761.69336">1 </tspan></text>
    <text
       xml:space="preserve"
       style="font-size:61.94775391px;font-style:normal;font-weight:normal;line-height:125%;letter-spacing:0px;word-spacing:0px;fill:#f9f9f9;fill-opacity:1;stroke:none;font-family:Sans"
       x="165.29239"
       y="760.57208"
       id="text4168-09"
       sodipodi:linespacing="125%"><tspan
         sodipodi:role="line"
         id="tspan4170-96"
         x="165.29239"
         y="760.57208">2 </tspan></text>
    <text
       xml:space="preserve"
       style="font-size:61.94775391px;font-style:normal;font-weight:normal;line-height:125%;letter-spacing:0px;word-spacing:0px;fill:#f9f9f9;fill-opacity:1;stroke:none;font-family:Sans"
       x="295.93558"
       y="760.27917"
       id="text4168-3"
       sodipodi:linespacing="125%"><tspan
         sodipodi:role="line"
         id="tspan4170-8"
         x="295.93558"
         y="760.27917">3 </tspan></text>
    <text
       xml:space="preserve"
       style="font-size:61.94775391px;font-style:normal;font-weight:normal;line-height:125%;letter-spacing:0px;word-spacing:0px;fill:#f9f9f9;fill-opacity:1;stroke:none;font-family:Sans"
       x="439.47824"
       y="769.47162"
       id="text4168-2"
       sodipodi:linespacing="125%"><tspan
         sodipodi:role="line"
         id="tspan4170-99"
         x="439.47824"
         y="769.47162">* </tspan></text>
    <text
       xml:space="preserve"
       style="font-size:61.94775391px;font-style:normal;font-weight:normal;line-height:125%;letter-spacing:0px;word-spacing:0px;fill:#f9f9f9;fill-opacity:1;stroke:none;font-family:Sans"
       x="446.54935"
       y="850.78888"
       id="text4168-30"
       sodipodi:linespacing="125%"><tspan
         sodipodi:role="line"
         id="tspan4170-6"
         x="446.54935"
         y="850.78888">/ </tspan></text>
    <text
       xml:space="preserve"
       style="font-size:61.94775391px;font-style:normal;font-weight:normal;line-height:125%;letter-spacing:0px;word-spacing:0px;fill:#f9f9f9;fill-opacity:1;stroke:none;font-family:Sans"
       x="290.98584"
       y="848.66748"
       id="text4168-4"
       sodipodi:linespacing="125%"><tspan
         sodipodi:role="line"
         id="tspan4170-2"
         x="290.98584"
         y="848.66748">+ </tspan></text>
    <text
       xml:space="preserve"
       style="font-size:61.94775391px;font-style:normal;font-weight:normal;line-height:125%;letter-spacing:0px;word-spacing:0px;fill:#f9f9f9;fill-opacity:1;stroke:none;font-family:Sans"
       x="171.48479"
       y="848.66748"
       id="text4168-97"
       sodipodi:linespacing="125%"><tspan
         sodipodi:role="line"
         id="tspan4170-31"
         x="171.48479"
         y="848.66748">- </tspan></text>
    <text
       xml:space="preserve"
       style="font-size:61.94775391px;font-style:normal;font-weight:normal;line-height:125%;letter-spacing:0px;word-spacing:0px;fill:#f9f9f9;fill-opacity:1;stroke:none;font-family:Sans"
       x="26.527893"
       y="852.91016"
       id="text4168-66"
       sodipodi:linespacing="125%"><tspan
         sodipodi:role="line"
         id="tspan4170-90"
         x="26.527893"
         y="852.91016">0 </tspan></text>
  </g>
</svg>
