<?xml version="1.0" encoding="UTF-8" standalone="no"?>
<!-- Created with Inkscape (http://www.inkscape.org/) -->

<svg
   xmlns:dc="http://purl.org/dc/elements/1.1/"
   xmlns:cc="http://creativecommons.org/ns#"
   xmlns:rdf="http://www.w3.org/1999/02/22-rdf-syntax-ns#"
   xmlns:svg="http://www.w3.org/2000/svg"
   xmlns="http://www.w3.org/2000/svg"
   xmlns:sodipodi="http://sodipodi.sourceforge.net/DTD/sodipodi-0.dtd"
   xmlns:inkscape="http://www.inkscape.org/namespaces/inkscape"
   id="svg4002"
   version="1.1"
   inkscape:version="0.48.4 r9939"
   width="342.45975"
   height="115.31252"
   sodipodi:docname="menuTitle.svg">
  <metadata
     id="metadata4008">
    <rdf:RDF>
      <cc:Work
         rdf:about="">
        <dc:format>image/svg+xml</dc:format>
        <dc:type
           rdf:resource="http://purl.org/dc/dcmitype/StillImage" />
        <dc:title></dc:title>
      </cc:Work>
    </rdf:RDF>
  </metadata>
  <defs
     id="defs4006" />
  <sodipodi:namedview
     pagecolor="#3d3d3d"
     bordercolor="#666666"
     borderopacity="1"
     objecttolerance="10"
     gridtolerance="10"
     guidetolerance="10"
     inkscape:pageopacity="0"
     inkscape:pageshadow="2"
     inkscape:window-width="1547"
     inkscape:window-height="876"
     id="namedview4004"
     showgrid="false"
     fit-margin-top="5"
     fit-margin-left="5"
     fit-margin-right="5"
     fit-margin-bottom="5"
     inkscape:zoom="2.2245197"
     inkscape:cx="75.232959"
     inkscape:cy="5.2060942"
     inkscape:window-x="53"
     inkscape:window-y="148"
     inkscape:window-maximized="1"
     inkscape:current-layer="svg4002" />
  <g
     id="g4624"
     transform="translate(-8.2910402,-13.408353)">
    <path
       inkscape:connector-curvature="0"
       id="path4012"
       d="m 224.20186,122.7342 c -1.375,-0.77617 -3.475,-1.41785 -4.66667,-1.42596 -1.19166,-0.008 -2.35117,-0.56825 -2.57667,-1.24477 -0.30524,-0.91572 -1.45178,-0.76027 -4.48686,0.60837 -5.81934,2.62416 -10.71568,1.97098 -23.41129,-3.12309 -2.00283,-0.80363 -5.22144,-3.12845 -7.15248,-5.16628 -3.0162,-3.183 -3.67383,-4.7795 -4.6666,-11.32888 -0.6356,-4.193062 -0.85441,-9.229426 -0.48624,-11.191922 0.91826,-4.894776 -1.27447,-4.74284 -5.38583,0.373187 -3.8274,4.76269 -3.96485,6.058638 -0.64261,6.058638 2.76706,0 4.00127,2.183705 5.09303,9.011177 1.60861,10.05971 -3.52694,16.53343 -13.03994,16.43776 -8.45074,-0.085 -13.24167,-2.00218 -16.60473,-6.64475 -2.5796,-3.56103 -2.97311,-4.97417 -2.97311,-10.67673 0,-5.899082 -0.14255,-6.368962 -1.39129,-4.586122 -0.76521,1.092492 -2.85779,5.580122 -4.65017,9.972512 -4.56464,11.18603 -5.53022,11.87782 -15.5174,11.11744 -4.72636,-0.35984 -8.45789,-0.21453 -9.02383,0.35141 -1.58648,1.58648 -8.61772,-0.0331 -9.16087,-2.11006 -0.44106,-1.6866 -0.60846,-1.65947 -2.24712,0.36419 -1.642016,2.0278 -2.733206,2.20182 -15.030058,2.39684 -15.617514,0.24769 -17.979263,-0.35395 -17.979263,-4.58012 0,-3.91203 4.151426,-15.0947 12.270712,-33.053547 8.318595,-18.399685 10.729288,-26.296224 10.729288,-35.145173 0,-7.61126 -2.40007,-13.928203 -6.030013,-15.870889 -2.945248,-1.576249 -16.108763,0.475167 -22.848544,3.56074 -6.393726,2.927145 -14.121443,8.958893 -14.121443,11.022272 0,1.103105 1.560447,1.43305 6.777494,1.43305 6.792742,0 10.040036,1.244707 12.92468,4.954109 2.313741,2.975268 6.297826,16.809358 6.297826,21.868177 0,15.416462 -15.090966,32.152341 -29,32.160981 -5.611081,0.003 -18.324142,-4.23038 -22.680999,-7.55352 -1.800926,-1.373632 -4.520523,-4.61977 -6.04355,-7.213633 -2.493801,-4.247186 -2.804943,-5.831594 -3.129226,-15.934742 -0.421548,-13.133508 1.439762,-20.902708 7.374464,-30.781372 4.696049,-7.816852 9.356952,-12.561598 18.121285,-18.447259 10.587518,-7.110015 17.432555,-9.195976 32.144486,-9.795731 13.665417,-0.557093 17.615331,0.353835 25.12603,5.794557 4.766101,3.452545 10.420741,11.67605 12.169781,17.698433 1.40227,4.828345 4.07842,5.716362 6.02724,2 2.45312,-4.678045 7.45657,-10.153043 11.79015,-12.901318 3.78888,-2.402836 5.54291,-2.848682 11.20723,-2.848682 6.27105,0 6.8866,0.203548 9.30422,3.076725 1.42389,1.692199 2.6032,4.279699 2.62069,5.75 0.0175,1.470301 0.69974,3.556696 1.51611,4.636433 1.35566,1.793017 1.76458,1.843053 4.7182,0.577341 1.77864,-0.762199 6.19647,-1.567109 9.8174,-1.78869 5.92565,-0.362617 6.88917,-0.145676 9.64243,2.171035 3.57015,3.004089 8.27406,15.759774 8.27406,22.436954 0,2.277111 0.34867,4.140202 0.77483,4.140202 0.42615,0 3.27402,-2.3625 6.32859,-5.25 8.79087,-8.310049 14.74949,-11.075413 24.89658,-11.554376 7.5667,-0.357163 8.80195,-0.162361 11.25,1.77416 1.5125,1.196457 2.80324,3.155215 2.86831,4.352796 0.0874,1.608303 0.28477,1.400351 0.75515,-0.795614 0.82596,-3.855929 4.16976,-5.493666 11.25442,-5.512224 3.09533,-0.0081 7.29086,-0.709583 9.3234,-1.558832 4.72153,-1.97278 7.54872,-1.138294 7.54872,2.228109 0,2.201342 0.30706,2.44591 2.25,1.792067 4.26074,-1.433838 13.84631,-1.678833 16.8591,-0.430897 2.60145,1.077557 3.24302,0.980618 5.18005,-0.78269 1.21597,-1.106915 3.19377,-2.518806 4.39511,-3.137536 3.18296,-1.639325 13.45888,-1.413435 15.97831,0.351242 2.3819,1.66835 7.33743,15.434951 7.33743,20.383593 0,4.488585 2.43888,3.999836 4.39142,-0.880034 2.01273,-5.030315 2.03615,-6.979764 0.0838,-6.979764 -2.17339,0 -3.74449,-4.62841 -2.41459,-7.113343 1.40746,-2.629867 4.98024,-3.886657 11.04892,-3.886657 2.73867,0 7.91772,-0.738084 11.509,-1.640187 7.87111,-1.977157 9.10041,-1.246118 10.4997,6.243923 1.09638,5.868639 0.62379,7.441012 -7.76329,25.829248 -3.49525,7.663142 -6.35499,14.489891 -6.35499,15.170541 0,0.68066 1.3117,1.52566 2.91489,1.87778 2.96219,0.650612 5.15005,3.886582 6.62332,9.796242 0.60139,2.41235 0.0387,3.43131 -4.28003,7.75 -4.04252,4.04252 -5.618,4.97246 -8.42419,4.97246 -1.89845,0 -4.32524,-0.66069 -5.39286,-1.4682 -1.06762,-0.8075 -3.19908,-1.4825 -4.73658,-1.5 -1.6544,-0.0188 -3.87004,-1.10638 -5.42804,-2.66438 -1.72759,-1.72759 -3.04802,-2.32918 -3.84108,-1.75 -0.66467,0.48542 -2.89891,2.22258 -4.96498,3.86036 -5.12175,4.06002 -10.99425,3.9211 -21.98432,-0.52007 -2.69959,-1.09092 -3.41801,-0.94367 -6.88954,1.41218 -4.68297,3.17795 -7.31544,3.26932 -15.41237,0.53494 -6.68417,-2.25727 -9.18422,-4.74184 -9.18422,-9.12734 0,-4.80899 -2.60964,-3.11312 -4.90758,3.18918 -1.19655,3.28167 -2.63226,6.24894 -3.19046,6.59392 -0.5582,0.34499 -3.35199,0.99481 -6.20843,1.44405 -2.85644,0.44924 -6.09353,1.04866 -7.19353,1.33204 -1.1,0.28338 -3.125,-0.11981 -4.5,-0.89598 z M 86.756157,116.2935 c 4.087583,0 6.797951,-0.49511 7.711517,-1.40867 0.77477,-0.77477 2.882158,-6.06227 4.68309,-11.75001 10.419336,-32.906615 27.198856,-63.841327 34.628646,-63.841327 4.35359,0 3.05256,4.786417 -6.10885,22.474228 -9.39948,18.147446 -15.18619,31.96544 -19.099,45.606169 -3.23418,11.27494 -2.86061,12.72086 2.57074,9.95 2.54995,-1.30089 5.9263,-2.03039 9.39728,-2.03039 3.13413,0 5.83869,-0.52684 6.41699,-1.25 0.54978,-0.6875 3.34516,-6.875 6.21196,-13.75 12.12196,-29.070229 24.10975,-47.691261 30.15239,-46.836717 5.50589,0.778637 2.79415,10.63873 -6.86791,24.972183 -7.62147,11.306273 -9.4955,15.593919 -10.02214,22.929894 -0.58176,8.10367 1.30516,12.42423 6.34583,14.53036 8.21667,3.43314 19.42516,-4.62406 19.42516,-13.96376 0,-4.516972 -2.23758,-4.886832 -3.98868,-0.6593 -3.18205,7.68216 -10.76338,10.86038 -13.19193,5.53029 -1.82761,-4.01117 0.39916,-9.174112 8.01981,-18.594543 9.06633,-11.20754 11.69798,-15.508555 13.69736,-22.386192 2.87053,-9.874251 -0.12102,-19.197171 -7.09502,-22.111096 -10.69333,-4.467957 -21.0744,7.316194 -34.43477,39.088874 -4.28253,10.18441 -5.52168,12.318428 -6.55365,11.286456 -0.31911,-0.319115 2.43161,-7.714115 6.11272,-16.433333 9.4736,-22.439557 11.67024,-29.045018 11.69681,-35.173299 0.0394,-9.09165 -4.84618,-13.088184 -13.35846,-10.927537 -9.61346,2.440157 -19.76327,17.862498 -30.93031,46.997713 -2.898576,7.5625 -5.653491,13.75 -6.122016,13.75 -1.514398,0 -0.928221,-2.287408 3.71581,-14.5 6.439636,-16.934598 7.676576,-22.811406 6.332086,-30.084407 -1.4096,-7.62527 -4.01402,-12.582484 -9.4848,-18.053263 C 89.096814,22.135817 81.19055,19.795381 68.38281,21.297906 54.419423,22.936005 44.430687,27.404598 33.33398,36.977462 16.861513,51.187866 10.624578,77.530635 20.16924,92.581006 26.234826,102.14544 38.863528,105.54024 49.401222,100.43903 55.412058,97.529238 62.682474,89.669664 65.934785,82.565682 68.902554,76.08322 69.591274,64.657953 67.277361,60.293493 61.996411,50.33266 51.135679,48.79979 42.850803,56.845959 36.219051,63.286634 33.365596,71.616403 35.118499,79.418 c 1.092521,4.862456 3.435248,7.099913 6.981594,6.667879 4.981649,-0.606891 5.425284,-7.41269 0.625743,-9.599508 -2.951001,-1.344565 -3.330864,-4.73185 -1.029688,-9.181834 3.299078,-6.379714 10.707415,-8.112666 14.433131,-3.376185 1.564612,1.989082 2.07258,4.080215 2.07258,8.532118 0,12.826548 -8.671509,23.820475 -18.795455,23.829285 -14.111935,0.01228 -17.149994,-26.380893 -5.183241,-45.029462 3.76963,-5.874458 13.057616,-14.785344 18.978696,-18.208145 10.542022,-6.09403 27.507872,-7.696628 33.699266,-3.183241 4.918005,3.585114 7.300734,9.755624 7.300734,18.906575 0,10.769841 -2.402155,18.964474 -11.36135,38.757734 C 73.99315,107.07941 70.763312,115.70828 71.53839,117.7281 c 0.51241,1.33532 1.052489,1.33943 4.746561,0.0361 2.292599,-0.80889 7.004641,-1.4707 10.471206,-1.4707 z m 137.445703,1.5 c 1.375,-0.78602 4.3,-1.45197 6.5,-1.47988 2.2,-0.0279 4.5476,-0.39871 5.2169,-0.82399 0.66929,-0.42529 3.48626,-6.29405 6.25994,-13.04171 10.95097,-26.640965 19.23253,-40.154427 24.60815,-40.154427 1.70982,0 2.41501,0.557334 2.41501,1.908654 0,1.04976 -3.34705,8.743312 -7.43789,17.096782 -7.84293,16.015199 -9.85471,22.416641 -8.89789,28.312841 0.80186,4.94128 3.3991,7.01506 8.78578,7.01506 3.2919,0 5.35232,-0.70792 8.05067,-2.76604 4.47707,-3.41483 7.43932,-9.0273 5.68861,-10.77802 -0.92093,-0.92092 -2.1052,-0.23896 -5.22711,3.01002 -2.22207,2.31251 -4.97791,4.20071 -6.13097,4.20071 -1.84616,0 -2.03286,-0.44468 -1.57437,-3.75 0.28609,-2.0625 3.54988,-10.050002 7.25287,-17.750007 7.67699,-15.963547 9.69746,-21.164062 9.09771,-23.416734 -0.23183,-0.870796 -0.70436,-2.85042 -1.05006,-4.399164 -0.43555,-1.951339 -1.6506,-3.242944 -3.95744,-4.206805 -4.82481,-2.015931 -10.13958,-0.291175 -14.87341,4.826732 -3.90885,4.225994 -13.89038,23.074623 -19.82308,37.432916 -1.87188,4.530322 -3.7897,8.242832 -4.26183,8.250012 -1.84352,0.028 1.27661,-7.952572 15.33166,-39.215019 3.39455,-7.550435 5.90441,-14.160866 5.57748,-14.689848 -0.36318,-0.587638 -1.93497,-0.401665 -4.04045,0.478062 -1.89532,0.791917 -5.96508,1.439848 -9.0439,1.439848 -6.09417,0 -9.46638,1.252554 -9.46638,3.516132 0,0.79517 1.18413,1.742962 2.6314,2.106204 2.57963,0.647444 2.61976,0.785146 2.03958,6.998147 -0.78491,8.405458 -6.72088,26.008673 -13.22157,39.208814 -6.05221,12.28945 -6.12057,13.91264 -0.44941,10.67071 z m -16.04651,-3.48154 c 5.3359,-2.73011 11.04651,-8.70958 11.04651,-11.5666 0,-3.287922 -1.03671,-3.098582 -6.07302,1.10914 -12.21493,10.20529 -20.92698,8.3997 -20.92698,-4.337162 0,-4.938533 0.33519,-5.811723 3.25,-8.466499 1.7875,-1.628033 7.7165,-4.889921 13.17555,-7.248638 11.61184,-5.017179 15.88553,-8.715689 17.50561,-15.149581 4.47216,-17.760569 -16.64574,-18.53865 -34.01122,-1.25313 -12.2325,12.176171 -15.89983,29.100298 -8.7964,40.59391 5.25134,8.49683 15.48351,11.10065 24.82995,6.31856 z M 194.20186,81.528684 c 0,-4.595841 8.4569,-15.802517 14.20034,-18.817612 1.48519,-0.779669 4.07269,-1.417579 5.75,-1.417579 2.74278,0 3.04966,0.311506 3.04966,3.09563 0,4.539622 -3.09491,8.148131 -10.19985,11.892497 -3.46508,1.826128 -7.49462,4.150851 -8.95452,5.166053 -3.29619,2.292137 -3.84563,2.303711 -3.84563,0.08101 z M 297.0385,113.8146 c 1.83516,-1.26805 5.11016,-4.66587 7.27779,-7.55072 3.75499,-4.99742 13.81319,-24.206951 18.83427,-35.970387 1.47855,-3.463961 2.50046,-4.875744 2.76051,-3.813683 0.2271,0.927475 -2.28128,8.127475 -5.57418,16 -6.94969,16.615008 -8.61075,22.46435 -7.72303,27.19631 0.74034,3.94634 2.12978,5.33878 6.6092,6.62346 4.24287,1.21684 8.53699,-0.59992 12.74442,-5.39192 3.03456,-3.45617 4.40068,-8.61416 2.2815,-8.61416 -0.52408,0 -2.41626,1.82099 -4.20485,4.04665 -2.49844,3.10898 -3.84174,3.97792 -5.79713,3.75 -5.46934,-0.63749 -3.99027,-7.06434 7.4252,-32.263902 7.23605,-15.97354 9.87697,-23.16178 9.01933,-24.549468 -0.23944,-0.387423 -2.79564,-0.09215 -5.68044,0.656154 -2.8848,0.748307 -7.6516,1.360559 -10.5929,1.360559 -5.86425,0 -9.21633,1.278857 -9.21633,3.516132 0,0.79517 1.17397,1.740411 2.60882,2.100536 2.36046,0.592437 2.55408,0.998852 2.03389,4.269052 -0.72122,4.533957 -12.23826,27.339921 -18.46222,36.558757 -5.24496,7.76876 -8.92664,10.97391 -11.47999,9.9941 -2.78862,-1.0701 -2.05065,-6.51571 1.83542,-13.543772 1.94476,-3.517142 5.63787,-10.623352 8.20691,-15.791576 4.18829,-8.425733 4.66472,-10.080866 4.61036,-16.01677 -0.0765,-8.360814 -2.08187,-12.51178 -6.79598,-14.067577 -2.93289,-0.967942 -4.16389,-0.844105 -7.85953,0.790651 -4.96051,2.194266 -8.69768,6.746604 -8.69768,10.594837 0,3.600447 1.4544,3.253389 5.88522,-1.40437 8.94848,-9.406807 11.21129,-1.761441 3.6166,12.219423 -9.90475,18.233406 -11.77691,22.675392 -11.85575,28.129704 -0.17958,12.42376 8.58696,17.80784 18.19057,11.17198 z m -88.53426,-10.90335 c 6.53942,-5.326422 8.93853,-6.174822 12.8637,-4.548962 3.82069,1.58258 3.65787,1.842842 8.93727,-14.285677 4.6249,-14.129042 5.40097,-20.011246 2.71265,-20.560369 -1.46854,-0.299967 -1.61144,0.359154 -1.11682,5.151521 0.4903,4.750531 0.20401,6.115214 -2.11192,10.067036 -2.80702,4.789825 -5.62516,6.618185 -18.58726,12.059094 -8.79674,3.692477 -11.64453,5.892475 -13.01916,10.057667 -2.55023,7.72727 2.1996,8.67511 10.32154,2.05969 z M 44.973299,90.814223 c 5.597998,-3.722336 9.538711,-10.660427 10.047123,-17.689146 0.486961,-6.732171 -0.757612,-7.508408 -5.49922,-3.429848 -2.681185,2.306258 -2.739241,2.548151 -1.460378,6.084783 1.612699,4.45984 0.817041,9.591729 -1.863185,12.0173 -1.559663,1.411475 -2.999875,1.655843 -6.980443,1.184403 -3.919841,-0.464247 -5.015337,-0.287493 -5.015337,0.809203 0,1.63429 2.723868,3.428434 5.27144,3.472166 0.974292,0.01673 3.449292,-1.085263 5.5,-2.448861 z"
       style="fill:#ffffff" />
    <path
       inkscape:connector-curvature="0"
       id="path4096"
       d="m 71.734906,117.28675 c -0.77508,-2.01982 2.45476,-10.64869 11.30212,-30.194877 8.95919,-19.79326 11.36135,-27.987893 11.36135,-38.757734 0,-6.3853 -0.46711,-8.972358 -2.25,-12.461557 -3.36641,-6.588204 -6.50539,-8.418716 -15.18837,-8.857186 -13.36557,-0.674931 -24.833512,4.229037 -35.190647,15.048365 -10.296507,10.755993 -14.623122,20.703389 -14.656418,33.69682 -0.03252,12.690701 4.571065,20.094722 12.489976,20.087831 10.123946,-0.0088 18.795455,-11.002737 18.795455,-23.829285 0,-4.451903 -0.507968,-6.543036 -2.07258,-8.532118 -3.725716,-4.736481 -11.134053,-3.003529 -14.433131,3.376185 -2.301176,4.449984 -1.921313,7.837269 1.029688,9.181834 4.799541,2.186818 4.355906,8.992617 -0.625743,9.599508 -3.546346,0.432034 -5.889073,-1.805423 -6.981594,-6.667879 -3.263861,-14.526381 10.261339,-30.577119 22.89849,-27.174287 7.153104,1.926131 10.601044,7.680344 10.548314,17.603903 -0.0467,8.792717 -3.18064,16.197968 -9.891089,23.371978 -6.224627,6.65463 -12.144319,9.448899 -20.017601,9.448899 -15.551766,0 -25.151699,-13.93967 -22.538574,-32.727342 1.826306,-13.130656 6.523327,-22.378235 16.074444,-31.647658 10.127045,-9.828365 21.93432,-15.412069 35.9256,-16.989347 12.67808,-1.429239 21.28169,1.150009 28.76488,8.62333 5.209694,5.202819 7.826394,10.250089 9.218664,17.78161 1.3521,7.314138 0.0604,13.423839 -6.338014,29.979002 -2.50897,6.491635 -4.56175,12.433519 -4.56175,13.204188 0,3.980003 2.22625,0.03793 6.973884,-12.348783 11.16704,-29.135215 21.31684,-44.557556 30.9303,-46.997713 8.51228,-2.160647 13.39788,1.835887 13.35846,10.927537 -0.0266,6.128281 -2.22321,12.733742 -11.69681,35.173299 -3.68111,8.719218 -6.43183,16.114218 -6.11272,16.433333 1.03197,1.031972 2.27112,-1.102046 6.55365,-11.286456 10.33469,-24.577223 19.12251,-37.380636 27.13825,-39.53905 3.29684,-0.887747 4.59522,-0.762817 7.63579,0.734713 5.13596,2.529539 7.56441,7.206657 7.63431,14.703417 0.0763,8.181835 -3.79115,16.188521 -13.81256,28.59588 -4.21798,5.222228 -8.17572,11.186055 -8.79498,13.25295 -3.39233,11.32258 8.55674,11.94362 13.21935,0.68707 1.55299,-3.749243 3.37181,-3.308358 3.78839,0.91831 0.36982,3.75225 -2.61085,9.12749 -6.45983,11.64944 -7.0185,4.5987 -13.78973,3.76679 -17.44213,-2.14292 -1.83169,-2.96373 -2.09624,-4.55633 -1.69208,-10.18639 0.53514,-7.454744 2.37664,-11.68455 10.02987,-23.037947 9.66206,-14.333453 12.3738,-24.193546 6.86791,-24.972183 -6.04264,-0.854544 -18.03043,17.766488 -30.15239,46.83671 -2.8668,6.875 -5.66218,13.0625 -6.21196,13.75 -0.5783,0.72316 -3.28286,1.25 -6.41699,1.25 -3.47098,0 -6.84732,0.7295 -9.39727,2.03039 -5.28788,2.69767 -5.72915,1.4023 -2.96035,-8.69009 3.46391,-12.626048 10.43979,-29.395663 19.52382,-46.934072 9.12635,-17.620118 10.42372,-22.406228 6.07363,-22.406228 -7.42979,0 -24.2093,30.934712 -34.628644,63.84133 -1.80093,5.68773 -3.90832,10.97523 -4.68309,11.75 -0.91357,0.91356 -3.62393,1.40867 -7.71152,1.40867 -3.46656,0 -8.1786,0.66181 -10.4712,1.47068 -3.69407,1.30335 -4.23415,1.29924 -4.74656,-0.0361 z m 148.319674,0.8154 c -0.254,-0.4125 1.90294,-5.55182 4.7932,-11.42071 6.50069,-13.200134 12.43666,-30.803349 13.22157,-39.208807 0.58018,-6.213001 0.54005,-6.350703 -2.03958,-6.998147 -1.44727,-0.363242 -2.6314,-1.311034 -2.6314,-2.106204 0,-2.263578 3.37221,-3.516132 9.46638,-3.516132 3.07882,0 7.14858,-0.647931 9.0439,-1.439848 1.90838,-0.797372 3.69318,-1.039971 3.9999,-0.543686 0.30462,0.492888 -3.79069,10.703319 -9.1007,22.689847 -10.19898,23.022676 -12.40948,28.565967 -12.40948,31.119417 0,2.67174 1.49829,0.10572 5.44525,-9.32573 6.20592,-14.829314 15.65022,-32.357209 19.66191,-36.490989 4.72797,-4.871844 9.84744,-6.472645 14.49275,-4.531714 3.47659,1.452614 4.75885,4.146004 4.78611,10.053233 0.008,1.733544 -3.3293,10.07902 -7.79791,19.5 -4.29653,9.058208 -8.04578,18.15697 -8.33166,20.21947 -0.46781,3.37504 -0.29509,3.75 1.7274,3.75 1.3655,0 3.762,-1.65717 6.10801,-4.22367 2.94414,-3.22085 4.13813,-3.94634 5.02884,-3.05563 0.89071,0.89071 0.87724,1.87007 -0.0567,4.12489 -3.41728,8.25003 -15.73496,12.65685 -20.37558,7.28963 -4.47097,-5.17099 -2.74549,-13.48741 6.87373,-33.129784 4.0908,-8.35347 7.43785,-16.047022 7.43785,-17.096782 0,-1.35132 -0.70519,-1.908654 -2.41501,-1.908654 -5.37562,0 -13.65718,13.513462 -24.60815,40.15442 -2.77368,6.74766 -5.59065,12.61642 -6.25994,13.04171 -0.6693,0.42528 -3.0169,0.79608 -5.2169,0.82399 -2.2,0.0279 -5.125,0.69386 -6.5,1.47988 -2.88658,1.65012 -3.70275,1.79104 -4.34379,0.75 z m -25.53659,-2.37149 c -13.86124,-4.11387 -18.63943,-21.076139 -10.57834,-37.552408 3.21802,-6.577394 12.36929,-15.945338 19.12953,-19.582452 15.36049,-8.264181 26.07779,-3.995544 23.2361,9.254799 -1.43924,6.71096 -5.43847,10.254833 -17.43554,15.450319 -5.48426,2.375025 -11.43387,5.65707 -13.22137,7.293433 -2.91298,2.666681 -3.25,3.546218 -3.25,8.481644 0,12.736855 8.71205,14.542445 20.92698,4.337165 4.99727,-4.175101 6.07302,-4.392567 6.07302,-1.22768 0,1.36036 -1.56371,3.90316 -3.75,6.09799 -6.62177,6.64764 -14.48579,9.41923 -21.13038,7.44719 z m 11.38038,-39.101431 c 8.2649,-4.511782 11.48815,-8.024418 11.49503,-12.527079 0.005,-2.957291 -0.2697,-3.25 -3.04469,-3.25 -4.22784,0 -7.85648,2.089641 -12.63981,7.278936 -4.70911,5.108784 -5.69894,6.778236 -7.14279,12.046995 l -1.04846,3.825931 2.69036,-1.776754 c 1.4797,-0.977214 5.84036,-3.496327 9.69036,-5.598029 z m 79.55474,38.968891 c -3.85056,-1.9691 -6.34045,-7.17862 -6.34045,-13.26593 0,-5.615438 1.69919,-9.689246 11.78753,-28.260617 5.23111,-9.629803 6.18316,-16.219423 2.34334,-16.219423 -1.21312,0 -3.81775,1.74809 -5.95994,4 -4.31475,4.535744 -5.88689,5.003524 -5.88148,1.75 0.006,-3.811226 3.5799,-8.370031 8.38423,-10.695767 3.98539,-1.929293 5.04419,-2.06671 8.11511,-1.053218 4.75696,1.569939 6.77553,5.695705 6.84093,13.982215 0.0583,7.392465 -1.7331,12.010897 -10.89257,28.081507 -5.83456,10.236933 -7.09808,16.089413 -3.75094,17.373833 2.55045,0.97869 6.22906,-2.21967 11.50156,-10 6.19288,-9.138489 17.71575,-31.9774 18.44194,-36.55285 0.51895,-3.26975 0.32495,-3.676697 -2.03518,-4.269052 -1.43485,-0.360125 -2.60882,-1.305366 -2.60882,-2.100536 0,-2.237275 3.35208,-3.516132 9.21633,-3.516132 2.9413,0 7.7081,-0.612252 10.5929,-1.360559 2.8848,-0.748307 5.441,-1.043577 5.68044,-0.656154 0.85764,1.387688 -1.78328,8.575928 -9.01933,24.549468 -11.46653,25.312275 -12.90422,31.627025 -7.34728,32.271415 2.054,0.23819 3.31968,-0.57537 5.83403,-3.75 1.76603,-2.22979 3.62316,-4.05417 4.12694,-4.05417 2.08732,0 0.69157,5.18598 -2.31841,8.61416 -4.20743,4.792 -8.50155,6.60876 -12.74442,5.39192 -4.47942,-1.28468 -5.86886,-2.67712 -6.6092,-6.62346 -0.88772,-4.73195 0.77334,-10.581293 7.72303,-27.196303 3.2929,-7.872525 5.80128,-15.072525 5.57418,-16 -0.26005,-1.062061 -1.28196,0.349722 -2.76051,3.813683 -5.02108,11.763436 -15.07928,30.97297 -18.83427,35.97038 -6.52579,8.68502 -13.84821,12.44064 -19.05969,9.77559 z"
       style="fill:#47a4da;fill-opacity:1;stroke:#47a4da;stroke-opacity:1" />
  </g>
</svg>
