<?xml version="1.0" encoding="UTF-8" standalone="no"?>
<!-- Created with Inkscape (http://www.inkscape.org/) -->

<svg
   xmlns:dc="http://purl.org/dc/elements/1.1/"
   xmlns:cc="http://creativecommons.org/ns#"
   xmlns:rdf="http://www.w3.org/1999/02/22-rdf-syntax-ns#"
   xmlns:svg="http://www.w3.org/2000/svg"
   xmlns="http://www.w3.org/2000/svg"
   xmlns:sodipodi="http://sodipodi.sourceforge.net/DTD/sodipodi-0.dtd"
   xmlns:inkscape="http://www.inkscape.org/namespaces/inkscape"
   id="svg4002"
   version="1.1"
   inkscape:version="0.48.4 r9939"
   width="339.03232"
   height="110.64772"
   sodipodi:docname="menuTitle.svg">
  <metadata
     id="metadata4008">
    <rdf:RDF>
      <cc:Work
         rdf:about="">
        <dc:format>image/svg+xml</dc:format>
        <dc:type
           rdf:resource="http://purl.org/dc/dcmitype/StillImage" />
        <dc:title></dc:title>
      </cc:Work>
    </rdf:RDF>
  </metadata>
  <defs
     id="defs4006" />
  <sodipodi:namedview
     pagecolor="#3d3d3d"
     bordercolor="#666666"
     borderopacity="1"
     objecttolerance="10"
     gridtolerance="10"
     guidetolerance="10"
     inkscape:pageopacity="0"
     inkscape:pageshadow="2"
     inkscape:window-width="1547"
     inkscape:window-height="876"
     id="namedview4004"
     showgrid="false"
     fit-margin-top="5"
     fit-margin-left="5"
     fit-margin-right="5"
     fit-margin-bottom="5"
     inkscape:zoom="3.1459459"
     inkscape:cx="178.54848"
     inkscape:cy="44.190195"
     inkscape:window-x="53"
     inkscape:window-y="148"
     inkscape:window-maximized="1"
     inkscape:current-layer="svg4002" />
  <g
     id="g3039">
    <path
       sodipodi:nodetypes="sssssscsssssssssssssssssssssssssssssccssssssssssssssssccssssssssssssssssssscssssscssssssssssssssssssscssssssscssssssssssssssssssssssssss"
       inkscape:connector-curvature="0"
       id="path4096"
       d="M 76.02558,73.975414 C 84.98477,54.182153 87.38693,45.987521 87.38693,35.21768 c 0,-6.385301 -0.46711,-8.972359 -2.25,-12.461558 C 81.77052,16.167918 78.63154,14.337405 69.94856,13.898935 56.58299,13.224004 45.115048,18.127973 34.757913,28.947302 24.461406,39.703294 20.134792,49.65069 20.101496,62.644121 c -0.03252,12.690702 4.571064,20.094723 12.489975,20.087833 10.123946,-0.009 18.795455,-11.002741 18.795455,-23.829286 0,-4.451903 -0.507968,-6.543036 -2.07258,-8.532118 -3.725716,-4.736481 -11.134053,-3.003529 -14.433131,3.376185 -2.301176,4.449984 -1.921313,7.837269 1.029688,9.181834 4.799541,2.186815 4.355906,8.992615 -0.625743,9.599505 -3.546346,0.43204 -5.889073,-1.80542 -6.981594,-6.66788 -3.263861,-14.526377 10.261339,-30.577115 22.89849,-27.174283 7.153104,1.926131 10.601044,7.680344 10.548314,17.603903 -0.0467,8.79272 -3.18064,16.19797 -9.891089,23.37198 -6.224627,6.65463 -12.144319,9.4489 -20.017601,9.4489 -15.551764,0 -25.1516976,-13.93967 -22.5385725,-32.727345 C 11.129413,43.252692 15.826435,34.005113 25.37755,24.73569 35.504595,14.907324 47.31187,9.3236204 61.30315,7.7463424 c 12.67808,-1.429239 21.28169,1.150009 28.76488,8.6233306 5.209694,5.202819 7.826394,10.250089 9.218664,17.781611 1.352096,7.314138 0.0604,13.423839 -6.338014,29.979 -2.50897,6.49164 -4.56175,12.43352 -4.56175,13.20419 0,3.98 2.22625,0.0379 6.973884,-12.348781 11.167036,-29.135217 21.316846,-44.557558 30.930306,-46.997715 8.51228,-2.160648 13.39789,1.835887 13.35847,10.927537 -0.0266,6.128281 -2.22322,12.733742 -11.69682,35.173298 -3.68111,8.719221 -6.43183,16.114221 -6.11272,16.433331 1.03197,1.03198 2.27112,-1.10204 6.55365,-11.28645 10.3347,-24.577226 19.12252,-37.380639 27.13826,-39.539053 3.29684,-0.887747 4.59522,-0.762817 7.63579,0.734713 5.13596,2.529538 7.56441,7.206657 7.63431,14.703417 0.0763,8.181835 -3.79115,16.188521 -13.81256,28.595883 -4.21798,5.222229 -8.17572,11.186049 -8.79498,13.252949 -3.39233,11.322581 8.55674,11.943618 13.21935,0.687071 0.83553,-2.017158 -0.77507,-4.589579 -0.0454,-4.243941 3.40137,4.67778 1.15199,14.210401 -2.62602,16.811687 -7.0185,4.5987 -13.78973,3.76679 -17.44213,-2.142916 -1.83169,-2.96373 -2.09624,-4.55633 -1.69208,-10.18639 0.53514,-7.454751 2.37664,-11.68455 10.02987,-23.03795 9.66206,-14.333453 12.3738,-24.193546 6.86791,-24.972183 -6.04264,-0.854544 -18.03044,17.766488 -30.1524,46.836713 -2.8668,6.875 -5.66218,13.0625 -6.21196,13.749996 -0.5783,0.72316 -3.28286,1.25 -6.41699,1.25 -3.47098,0 -7.18448,1.01046 -9.73443,2.31135 -1.88074,0.95948 -6.589628,-0.41984 -7.262835,-0.73256 -1.219577,-0.56651 2.855617,-1.73566 4.639635,-8.238486 3.4639,-12.626054 10.4398,-29.39567 19.52383,-46.934075 9.12635,-17.620118 10.42372,-22.406228 6.07363,-22.406228 -7.42979,0 -24.20931,30.934712 -34.62865,63.841333 -1.80093,5.68773 -3.90832,10.975226 -4.68309,11.749996 -0.91357,0.91356 -3.62393,1.40867 -7.71152,1.40867 -3.46656,0 -8.1786,0.66181 -10.4712,1.47068 -3.69407,1.30336 -7.492312,0.42511 -8.004722,-0.91024 C 61.838151,92.276342 72.499128,81.718557 76.0256,73.975414 z m 134.32036,30.111176 c -0.254,-0.4125 4.60015,-4.652747 7.49041,-10.521637 6.50069,-13.20014 12.43666,-30.803352 13.22157,-39.20881 0.58018,-6.213001 0.54005,-6.350703 -2.03958,-6.998147 -1.44727,-0.363242 -2.6314,-1.311034 -2.6314,-2.106204 0,-2.263578 3.37221,-3.516132 9.46638,-3.516132 3.07882,0 6.23471,-3.627957 8.13003,-4.419874 1.90838,-0.797372 4.60705,1.940055 4.91377,2.43634 0.30462,0.492888 -3.79069,10.703319 -9.1007,22.689847 -10.19898,23.02268 -12.40948,28.565971 -12.40948,31.119421 0,2.67174 1.49829,0.10572 5.44525,-9.32573 6.20592,-14.82932 15.65022,-32.357212 19.66191,-36.490992 4.72797,-4.871844 9.84744,-6.472645 14.49275,-4.531714 3.47659,1.452614 4.75885,4.146004 4.78611,10.053233 0.008,1.733544 -3.3293,10.07902 -7.79791,19.500003 -4.29653,9.05821 -8.04578,18.15697 -8.33166,20.21947 -0.46781,3.37504 -0.29509,3.75 1.7274,3.75 1.3655,0 3.762,-1.657168 6.10801,-4.22367 2.94414,-3.22085 -6.40281,-3.233788 1.46065,-5.331402 1.2171,-0.324666 2.87206,3.977266 1.93812,6.232086 -3.41728,8.250022 -14.16159,12.825432 -18.80221,7.458202 -4.47097,-5.170986 -2.74549,-13.487406 6.87373,-33.129786 4.0908,-8.353467 7.43785,-16.047019 7.43785,-17.096779 0,-1.35132 -0.70519,-1.908654 -2.41501,-1.908654 -5.37562,0 -13.65718,13.513462 -24.60815,40.154423 -2.77368,6.74766 -5.59065,12.616416 -6.25994,13.041706 -0.6693,0.42528 -3.0169,0.79608 -5.2169,0.82399 -2.2,0.0279 -5.125,0.69386 -6.5,1.47988 -2.88658,1.65013 -6.39996,0.89198 -7.041,-0.14907 z m -22.83938,-1.47242 c -13.86124,-4.113867 -18.63943,-21.076136 -10.57834,-37.552407 3.21802,-6.577395 12.36929,-15.945338 19.12953,-19.582453 15.36049,-8.264181 26.07779,-3.995544 23.2361,9.254799 -1.43924,6.71096 -5.43847,10.254834 -17.43554,15.450324 -5.48426,2.37502 -11.43387,5.65707 -13.22137,7.29343 -2.91298,2.66668 -3.25,3.54622 -3.25,8.48164 0,12.73686 8.71205,14.542447 20.92698,4.33717 4.99727,-4.1751 6.07302,-4.39257 6.07302,-1.22768 0,1.36036 -1.56371,3.90316 -3.75,6.09799 -6.62177,6.647637 -14.48579,9.419227 -21.13038,7.447187 z m 11.38038,-39.10143 c 8.2649,-4.511782 11.48815,-8.024418 11.49503,-12.527079 0.005,-2.957291 -0.2697,-3.25 -3.04469,-3.25 -4.22784,0 -7.85648,2.089641 -12.63981,7.278936 -4.70911,5.108784 -5.69894,6.778235 -7.14279,12.046996 l -1.04846,3.825931 2.69036,-1.77675 c 1.4797,-0.977221 5.84036,-3.49633 9.69036,-5.598034 z m 79.55474,38.96889 c -3.85056,-1.9691 -6.34045,-7.178616 -6.34045,-13.265926 0,-5.61544 1.69919,-9.68925 11.78753,-28.26062 5.23111,-9.629804 6.18316,-16.219423 2.34334,-16.219423 -1.21312,0 -3.81775,1.74809 -5.95994,4 -4.31475,4.535744 -8.98612,4.566454 -8.98071,1.31293 0.006,-3.811226 6.67913,-7.932961 11.48346,-10.258697 3.98539,-1.929293 5.04419,-2.06671 8.11511,-1.053218 4.75696,1.569939 6.77553,5.695705 6.84093,13.982215 0.0583,7.392465 -1.7331,12.010893 -10.89257,28.081503 -5.83456,10.23694 -7.09808,16.08942 -3.75094,17.37384 2.55045,0.97869 6.22906,-2.21967 11.50156,-10 6.19288,-9.13849 17.71575,-31.977403 18.44194,-36.552853 0.51895,-3.26975 0.32495,-3.676697 -2.03518,-4.269052 -1.43485,-0.360125 -2.60882,-1.305366 -2.60882,-2.100536 0,-2.237275 3.35208,-3.516132 9.21633,-3.516132 2.9413,0 7.7081,-0.612252 10.5929,-1.360559 1.20168,-0.311712 0.99774,-2.93297 1.94168,-3.070861 1.32212,-0.193135 3.59906,2.188668 3.73876,2.414707 0.85764,1.38769 -1.78328,8.575927 -9.01933,24.549466 -11.46653,25.31228 -12.90422,31.62703 -7.34728,32.27142 2.054,0.23819 3.31968,-0.57537 5.83403,-3.75 1.76603,-2.22979 0.61689,-6.189462 1.12067,-6.189462 2.08732,0 3.69784,7.321272 0.68786,10.749452 -4.20743,4.791996 -8.50155,6.608756 -12.74442,5.391916 -4.47942,-1.28468 -5.86886,-2.67712 -6.6092,-6.623456 -0.88772,-4.73195 0.77334,-10.5813 7.72303,-27.19631 3.2929,-7.872521 5.80128,-15.072521 5.57418,-15.999996 -0.26005,-1.062061 -1.28196,0.349722 -2.76051,3.813683 -5.02108,11.763433 -15.07928,30.972973 -18.83427,35.970383 -6.52579,8.685016 -13.84821,12.440636 -19.05969,9.775586 z"
       style="fill:#ffffff;fill-opacity:1;stroke:none" />
    <path
       inkscape:connector-curvature="0"
       id="path4096-8"
       d="m 61.335656,102.30164 c -0.77508,-2.01982 2.45476,-10.648689 11.30212,-30.194879 8.95919,-19.79326 11.36135,-27.987893 11.36135,-38.757734 0,-6.3853 -0.46711,-8.972358 -2.25,-12.461557 -3.36641,-6.588205 -6.50539,-8.418717 -15.18837,-8.857187 -13.36557,-0.674931 -24.833512,4.229036 -35.190647,15.048365 -10.296507,10.755994 -14.623123,20.70339 -14.656419,33.696821 -0.03252,12.690702 4.571066,20.094722 12.489977,20.087832 10.123946,-0.009 18.795455,-11.00274 18.795455,-23.829286 0,-4.451903 -0.507968,-6.543036 -2.07258,-8.532118 -3.725716,-4.736481 -11.134053,-3.003529 -14.433131,3.376185 -2.301176,4.449984 -1.921313,7.837269 1.029688,9.181834 4.799541,2.186815 4.355906,8.992615 -0.625743,9.599505 -3.546346,0.43204 -5.889073,-1.80542 -6.981594,-6.66788 -3.263861,-14.526377 10.261339,-30.577115 22.89849,-27.174283 7.153104,1.926131 10.601044,7.680344 10.548314,17.603903 -0.0467,8.79272 -3.18064,16.19797 -9.891089,23.37198 -6.224627,6.65463 -12.144319,9.4489 -20.017601,9.4489 -15.551766,0 -25.1516998,-13.93967 -22.5385748,-32.727345 C 7.7416072,41.38404 12.438629,32.136461 21.989746,22.867038 32.116791,13.038672 43.924066,7.4549679 57.915346,5.8776899 c 12.67808,-1.4292389 21.28169,1.150009 28.76488,8.6233301 5.209694,5.20282 7.826394,10.25009 9.218664,17.781611 1.3521,7.314138 0.0604,13.423839 -6.338014,29.979 -2.50897,6.49164 -4.56175,12.43352 -4.56175,13.20419 0,3.98 2.22625,0.0379 6.973884,-12.34878 11.16704,-29.135218 21.31685,-44.557559 30.93031,-46.997717 8.51228,-2.160647 13.39788,1.835888 13.35846,10.927538 -0.0266,6.128281 -2.22321,12.733742 -11.69681,35.173299 -3.68111,8.71922 -6.43183,16.11422 -6.11272,16.43333 1.03197,1.03198 2.27112,-1.10204 6.55365,-11.28645 10.33469,-24.577226 19.12251,-37.380639 27.13825,-39.539053 3.29684,-0.887747 4.59522,-0.762817 7.63579,0.734713 5.13596,2.529539 7.56441,7.206657 7.63431,14.703417 0.0763,8.181835 -3.79115,16.188521 -13.81256,28.595883 -4.21798,5.22223 -8.17572,11.18605 -8.79498,13.25295 -3.39233,11.32258 8.55674,11.94362 13.21935,0.68707 1.55299,-3.74925 3.37181,-3.30836 3.78839,0.91831 0.36982,3.75225 -2.61085,9.12749 -6.45983,11.64944 -7.0185,4.598699 -13.78973,3.766789 -17.44213,-2.14292 -1.83169,-2.96373 -2.09624,-4.55633 -1.69208,-10.18639 0.53514,-7.45475 2.37664,-11.68455 10.02987,-23.03795 9.66206,-14.333453 12.3738,-24.193546 6.86791,-24.972183 -6.04264,-0.854544 -18.03043,17.766488 -30.15239,46.836713 -2.8668,6.875 -5.66218,13.0625 -6.21196,13.75 -0.5783,0.72316 -3.28286,1.25 -6.41699,1.25 -3.47099,0 -6.84733,0.729499 -9.39728,2.030389 -5.28788,2.69767 -5.72915,1.4023 -2.96035,-8.690089 3.46391,-12.62605 10.43979,-29.39567 19.52383,-46.934075 9.12635,-17.620118 10.42372,-22.406228 6.07363,-22.406228 -7.42979,0 -24.20931,30.934712 -34.628654,63.841333 -1.80093,5.68773 -3.90832,10.97523 -4.68309,11.75 -0.91357,0.913559 -3.62393,1.408669 -7.71152,1.408669 -3.46656,0 -8.1786,0.66181 -10.4712,1.47068 -3.69407,1.30335 -4.23415,1.29924 -4.74656,-0.0361 z m 148.319684,0.8154 c -0.254,-0.4125 1.90294,-5.55182 4.7932,-11.420709 6.50069,-13.200141 12.43666,-30.803353 13.22157,-39.20881 0.58018,-6.213002 0.54005,-6.350704 -2.03958,-6.998148 -1.44727,-0.363242 -2.6314,-1.311034 -2.6314,-2.106204 0,-2.263578 3.37221,-3.516132 9.46638,-3.516132 3.07882,0 7.14858,-0.647931 9.0439,-1.439848 1.90838,-0.797371 3.69318,-1.03997 3.9999,-0.543685 0.30462,0.492887 -3.79069,10.703318 -9.1007,22.689847 -10.19898,23.022679 -12.40948,28.56597 -12.40948,31.11942 0,2.67174 1.49829,0.10572 5.44525,-9.32573 6.20592,-14.82932 15.65022,-32.357212 19.66191,-36.490992 4.72797,-4.871844 9.84744,-6.472645 14.49275,-4.531714 3.47659,1.452614 4.75885,4.146004 4.78611,10.053233 0.008,1.733544 -3.3293,10.07902 -7.79791,19.500003 -4.29653,9.05821 -8.04578,18.15697 -8.33166,20.21947 -0.46781,3.37504 -0.29509,3.75 1.7274,3.75 1.3655,0 3.762,-1.65717 6.10801,-4.22367 2.94414,-3.22085 4.13813,-3.94634 5.02884,-3.05563 0.89071,0.89071 0.87724,1.87007 -0.0567,4.12489 -3.41728,8.25003 -15.73496,12.656849 -20.37558,7.28963 -4.47097,-5.17099 -2.74549,-13.48741 6.87373,-33.12979 4.0908,-8.353467 7.43785,-16.047019 7.43785,-17.096779 0,-1.35132 -0.70519,-1.908654 -2.41501,-1.908654 -5.37562,0 -13.65718,13.513462 -24.60815,40.154423 -2.77368,6.74766 -5.59065,12.61642 -6.25994,13.041709 -0.6693,0.42528 -3.0169,0.79608 -5.2169,0.82399 -2.2,0.0279 -5.125,0.69386 -6.5,1.47988 -2.88658,1.65012 -3.70275,1.79104 -4.34379,0.75 z m -25.53659,-2.37149 c -13.86124,-4.113869 -18.63943,-21.076139 -10.57834,-37.55241 3.21802,-6.577394 12.36929,-15.945338 19.12953,-19.582453 15.36049,-8.26418 26.07779,-3.995543 23.2361,9.2548 -1.43924,6.71096 -5.43847,10.254834 -17.43554,15.450323 -5.48426,2.375021 -11.43387,5.657071 -13.22137,7.29343 -2.91298,2.66668 -3.25,3.546221 -3.25,8.48164 0,12.73686 8.71205,14.54245 20.92698,4.33717 4.99727,-4.1751 6.07302,-4.39257 6.07302,-1.22768 0,1.36036 -1.56371,3.90316 -3.75,6.09799 -6.62177,6.64764 -14.48579,9.41923 -21.13038,7.44719 z m 11.38038,-39.101434 c 8.2649,-4.511782 11.48815,-8.024418 11.49503,-12.527079 0.005,-2.957291 -0.2697,-3.25 -3.04469,-3.25 -4.22784,0 -7.85648,2.089641 -12.63981,7.278936 -4.70911,5.108784 -5.69894,6.778237 -7.14279,12.046998 l -1.04846,3.825929 2.69036,-1.77675 c 1.4797,-0.97722 5.84036,-3.49633 9.69036,-5.598034 z m 79.55474,38.968894 c -3.85056,-1.969099 -6.34045,-7.178619 -6.34045,-13.265929 0,-5.615441 1.69919,-9.68925 11.78753,-28.260621 5.23111,-9.629803 6.18316,-16.219423 2.34334,-16.219423 -1.21312,0 -3.81775,1.74809 -5.95994,4 -4.31475,4.535745 -5.88689,5.003524 -5.88148,1.75 0.006,-3.811225 3.5799,-8.370031 8.38423,-10.695767 3.98539,-1.929293 5.04419,-2.06671 8.11511,-1.053218 4.75696,1.569939 6.77553,5.695705 6.84093,13.982215 0.0583,7.392466 -1.7331,12.010893 -10.89257,28.081503 -5.83456,10.236941 -7.09808,16.089421 -3.75094,17.37384 2.55045,0.97869 6.22906,-2.219669 11.50156,-10 6.19288,-9.13849 17.71575,-31.977402 18.44194,-36.552852 0.51895,-3.269751 0.32495,-3.676698 -2.03518,-4.269053 -1.43485,-0.360124 -2.60882,-1.305366 -2.60882,-2.100536 0,-2.237275 3.35208,-3.516132 9.21633,-3.516132 2.9413,0 7.7081,-0.612252 10.5929,-1.360559 2.8848,-0.748307 5.441,-1.043577 5.68044,-0.656154 0.85764,1.387688 -1.78328,8.575928 -9.01933,24.549466 -11.46653,25.31228 -12.90422,31.62703 -7.34728,32.27142 2.054,0.23819 3.31968,-0.57537 5.83403,-3.75 1.76603,-2.22979 3.62316,-4.05417 4.12694,-4.05417 2.08732,0 0.69157,5.18598 -2.31841,8.61416 -4.20743,4.792 -8.50155,6.60876 -12.74442,5.39192 -4.47942,-1.28468 -5.86886,-2.67712 -6.6092,-6.62346 -0.88772,-4.73195 0.77334,-10.5813 7.72303,-27.19631 3.2929,-7.872521 5.80128,-15.072521 5.57418,-15.999996 -0.26005,-1.062061 -1.28196,0.349722 -2.76051,3.813683 -5.02108,11.763433 -15.07928,30.972973 -18.83427,35.970383 -6.52579,8.68502 -13.84821,12.44064 -19.05969,9.77559 z"
       style="fill:#47a4da;fill-opacity:1;stroke:#ffffff;stroke-width:1;stroke-miterlimit:4;stroke-opacity:1;stroke-dasharray:none" />
  </g>
</svg>
