<?xml version="1.0" encoding="UTF-8" standalone="no"?>
<!-- Created with Inkscape (http://www.inkscape.org/) -->

<svg
   xmlns:dc="http://purl.org/dc/elements/1.1/"
   xmlns:cc="http://creativecommons.org/ns#"
   xmlns:rdf="http://www.w3.org/1999/02/22-rdf-syntax-ns#"
   xmlns:svg="http://www.w3.org/2000/svg"
   xmlns="http://www.w3.org/2000/svg"
   xmlns:sodipodi="http://sodipodi.sourceforge.net/DTD/sodipodi-0.dtd"
   xmlns:inkscape="http://www.inkscape.org/namespaces/inkscape"
   id="svg3039"
   version="1.1"
   inkscape:version="0.48.4 r9939"
   width="577.84723"
   height="127.25723"
   sodipodi:docname="solvesAll.svg">
  <metadata
     id="metadata3045">
    <rdf:RDF>
      <cc:Work
         rdf:about="">
        <dc:format>image/svg+xml</dc:format>
        <dc:type
           rdf:resource="http://purl.org/dc/dcmitype/StillImage" />
        <dc:title></dc:title>
      </cc:Work>
    </rdf:RDF>
  </metadata>
  <defs
     id="defs3043" />
  <sodipodi:namedview
     pagecolor="#258ecc"
     bordercolor="#666666"
     borderopacity="1"
     objecttolerance="10"
     gridtolerance="10"
     guidetolerance="10"
     inkscape:pageopacity="0"
     inkscape:pageshadow="2"
     inkscape:window-width="1547"
     inkscape:window-height="876"
     id="namedview3041"
     showgrid="false"
     inkscape:zoom="2.1965135"
     inkscape:cx="283.79427"
     inkscape:cy="59.709264"
     inkscape:window-x="53"
     inkscape:window-y="148"
     inkscape:window-maximized="1"
     inkscape:current-layer="svg3039"
     fit-margin-top="5"
     fit-margin-left="5"
     fit-margin-right="5"
     fit-margin-bottom="5" />
  <path
     style="fill:#ffffff"
     d="m 338.99629,121.91898 c -11.21307,-2.28166 -17.28982,-5.1524 -21.81413,-10.30531 -1.71862,-1.9574 -3.36352,-3.55891 -3.65532,-3.55891 -0.2918,0 -2.23297,1.70242 -4.31371,3.78316 -7.13319,7.13319 -18.23775,10.11504 -26.01937,6.98683 -2.03361,-0.8175 -5.15997,-2.00019 -6.94747,-2.62818 -1.7875,-0.628 -4.54923,-1.6713 -6.13717,-2.31846 -2.59708,-1.05842 -3.40871,-0.84197 -8.07798,2.15429 -7.22896,4.63881 -12.4149,4.98438 -22.85122,1.52274 -6.95672,-2.30749 -8.84391,-3.44092 -12.49991,-7.50726 -4.5312,-5.03979 -6.68372,-10.308315 -6.68372,-16.359135 0,-5.53618 -2.07001,-4.45806 -5.98829,3.11884 -4.17441,8.072215 -14.58777,18.976095 -21.07743,22.070285 -5.23775,2.4973 -13.08039,2.87106 -17.02731,0.81147 -1.42617,-0.74421 -4.12617,-1.65629 -6,-2.02686 -4.07227,-0.80531 -6.88016,-3.00582 -10.33873,-8.1023 -2.20882,-3.25489 -2.56492,-4.84956 -2.5445,-11.394965 0.0266,-8.52741 2.01188,-14.46893 8.28532,-24.796118 2.03002,-3.34177 3.69094,-6.75644 3.69094,-7.58815 0,-1.83955 -2.12285,-2.76832 -4.75447,-2.08013 -4.30777,1.12651 -6.93377,-6.49149 -4.12334,-11.96179 1.65896,-3.22905 6.00383,-7.66743 9.07815,-9.27353 3.61461,-1.88836 13.24203,-1.82221 16.19289,0.11127 2.24594,1.4716 4.11207,5.08798 6.47556,12.549 2.66022,8.39775 0.61046,16.19458 -9.44704,35.934438 -8.19251,16.079455 -8.22717,16.976585 -0.50361,13.036325 8.3238,-4.246485 20.02547,-20.845125 25.10635,-35.612943 2.67219,-7.76685 2.57974,-9.42882 -0.52449,-9.42882 -1.375,0 -3.45223,-0.95223 -4.61608,-2.11607 -1.74568,-1.74569 -2.03376,-2.97271 -1.64581,-7.01013 0.65513,-6.81809 2.7851,-8.8738 9.19437,-8.8738 2.89818,0 6.03768,0.64101 7.23009,1.47621 2.3819,1.66835 7.33743,15.43495 7.33743,20.38359 0,4.43754 1.85649,3.87116 6.2597,-1.90973 4.94195,-6.48821 13.94079,-13.48556 20.52781,-15.9621 6.65961,-2.50384 18.69714,-2.73766 21.9957,-0.42726 2.62949,1.84177 5.21679,6.49862 5.21679,9.38963 0,1.15526 0.65455,2.04966 1.5,2.04966 0.825,0 1.5,-0.52002 1.5,-1.1556 0,-2.51855 5.21862,-7.77444 10.16838,-10.24101 4.37427,-2.1798 6.58346,-2.60339 13.57762,-2.60339 5.46671,0 9.35499,0.51799 11.25197,1.49895 4.24113,2.19318 7.66813,7.34591 8.43247,12.67882 0.60161,4.19749 0.38291,4.99952 -2.13,7.81147 -2.65985,2.97637 -3.01481,3.08551 -7.07068,2.17397 -5.55573,-1.24861 -9.22976,-3.71114 -9.22976,-6.18626 0,-2.37254 -2.25506,-2.57903 -4.42857,-0.40552 -2.70459,2.70459 -1.79759,6.20602 3.34593,12.91678 2.70455,3.52864 5.20988,7.33732 5.56739,8.46375 0.98205,3.094138 2.96408,2.461188 4.35722,-1.39147 0.68406,-1.89173 3.36196,-5.79711 5.95089,-8.67861 8.87215,-9.8748 24.14963,-14.83466 48.20714,-15.65056 l 14.5,-0.49175 8.49055,-13.11979 c 12.10232,-18.70075 22.67434,-28.827872 35.67442,-34.1731153 4.75162,-1.953724 7.59893,-2.399519 15.33503,-2.400964 13.57118,-0.0025 20.70652,3.635099 22.94562,11.6977933 1.41422,5.092406 1.44011,5.012876 -1.86859,5.739596 -4.58127,1.00621 -11.85233,6.32998 -15.10789,11.06177 -3.2499,4.72357 -3.68557,6.45514 -1.62413,6.45514 2.27445,0 4.65499,3.4922 4.65499,6.82875 0,4.59878 3.10923,4.26626 5.41156,-0.57875 3.08865,-6.49975 10.73153,-17.32979 16.83231,-23.85154 11.74996,-12.5607493 22.35321,-17.3984563 38.13378,-17.3984563 7.20099,0 10.045,0.431077 13.09166,1.984352 3.88196,1.979137 3.90908,1.979137 10.31677,0 7.72023,-2.384536 22.55902,-2.716177 27.49604,-0.614525 4.98888,2.123729 7.71911,6.0697723 8.92116,12.8939093 1.05761,6.00416 1.03093,6.13805 -1.68892,8.47757 -1.73505,1.49243 -3.36842,2.12318 -4.38893,1.69487 -0.89399,-0.37521 -2.97543,-1.13561 -4.62543,-1.68979 -7.40342,-2.48655 -9.5,-3.75116 -9.5,-5.73021 0,-2.84546 -2.7537,-2.56277 -8.05422,0.82683 -12.34578,7.89491 -26.62259,30.16868 -37.88162,59.100468 -5.04506,12.96405 -5.10566,14.05652 -0.77977,14.05652 4.00159,0 6.64186,3.75042 6.87771,9.769575 0.36634,9.34918 -13.11613,18.75788 -19.72097,13.76222 -1.06762,-0.8075 -2.98321,-1.4825 -4.25687,-1.5 -7.21668,-0.0991 -9.57542,-5.09878 -8.94772,-18.965865 0.40489,-8.94463 1.12652,-12.53611 4.70285,-23.405508 5.36425,-16.30337 14.38743,-34.36132 22.63133,-45.29169 3.5361,-4.68844 6.42928,-8.9394 6.42928,-9.44658 0,-1.7695 -3.64141,-0.90106 -8.05422,1.92086 -12.34578,7.89491 -26.62259,30.16868 -37.88162,59.100468 -5.04219,12.95669 -5.10413,14.05652 -0.79156,14.05652 2.66667,0 3.59646,0.60174 5.02183,3.25 2.72695,5.066555 2.47286,9.877475 -0.74447,14.095605 -5.22958,6.85633 -12.66725,9.54564 -17.10883,6.18619 -1.06762,-0.8075 -2.98321,-1.4825 -4.25687,-1.5 -6.52826,-0.0897 -9.18426,-4.80988 -9.18426,-16.32218 0,-7.752345 0.92354,-12.640945 5.18161,-27.428103 0.66811,-2.32016 0.92517,-4.50807 0.57123,-4.862 -0.35393,-0.35394 -2.51825,-0.0306 -4.8096,0.71849 l -4.16608,1.362 -2.78648,10.999998 c -3.1321,12.36435 -7.09733,23.801235 -10.57452,30.499995 -3.89981,7.51295 -3.74904,7.39634 -7.2338,5.5943 -1.69567,-0.87686 -4.00539,-1.5943 -5.1327,-1.5943 -1.15525,0 -2.04966,-0.65455 -2.04966,-1.5 0,-0.825 -0.46445,-1.5 -1.03212,-1.5 -2.08424,0 -7.555,2.77038 -10.68852,5.41265 l -3.22063,2.71572 -5.52213,-1.81418 c -5.08491,-1.67055 -5.5227,-2.05503 -5.52936,-4.85598 -0.005,-2.3001 1.10709,-4.12886 4.56276,-7.5 5.40271,-5.27054 11.79706,-14.657365 16.81435,-24.683245 4.8478,-9.687188 4.77194,-10.274958 -1.32602,-10.274958 l -4.94166,0 -5.71368,9.749998 c -8.03074,13.70392 -13.6987,21.427615 -19.71339,26.863295 -9.32656,8.42874 -24.80754,14.05826 -33.6896,12.25092 z m 11.48052,-7.85752 c 14.14789,-4.86758 23.59807,-14.510165 36.88423,-37.635183 5.34152,-9.29709 5.49447,-9.37151 19.26025,-9.37151 6.03823,0 8.37244,0.34877 8.36582,1.25 -0.0164,2.23626 -10.88617,23.823618 -15.46,30.703648 -2.45071,3.686385 -6.7599,8.857705 -9.57596,11.491805 -3.57672,3.3456 -4.80354,5.10586 -4.06988,5.83952 0.73366,0.73366 2.91926,-0.2608 7.25054,-3.29902 4.98284,-3.49526 7.25492,-4.43672 11.5713,-4.79467 5.25266,-0.43559 5.397,-0.37651 6.55132,2.68165 0.64919,1.71988 1.69141,3.12706 2.31606,3.12706 2.77511,0 13.01908,-26.999305 16.34127,-43.069513 l 1.15139,-5.56951 5.01417,-1.28509 c 8.82083,-2.26072 14.625,-9.29571 13.26786,-16.08141 -0.72594,-3.62972 -4.37883,-6.43713 -7.20755,-5.53933 -2.86696,0.90994 -3.38119,3.33025 -1.41481,6.65906 2.11159,3.57463 1.16819,5.59474 -3.80142,8.14008 -3.02924,1.55151 -3.46346,1.57532 -3.75691,0.20597 -0.57805,-2.69738 4.80845,-19.72082 8.21426,-25.96025 3.49234,-6.39794 10.89124,-12.96193 15.83445,-14.04764 5.29426,-1.162812 4.4434,-4.084538 -2.15001,-7.382846 -4.94164,-2.4720183 -9.93405,-3.0777313 -17.06248,-2.0701343 -15.98123,2.2589313 -30.424,14.9072703 -46.38433,40.6213203 l -5.66107,9.12069 -16.22951,0.53064 c -17.46459,0.57103 -26.04293,2.31941 -35.90836,7.31861 -18.42584,9.33707 -25.13668,31.410818 -13.45418,44.254363 6.44932,7.09028 17.25927,8.58421 30.11355,4.16169 z m -20.21083,-6.44289 c -5.26115,-2.36273 -7.43454,-6.88771 -7.04813,-14.674155 0.26135,-5.26662 0.85757,-7.30461 2.93299,-10.02563 3.38701,-4.440598 10.83291,-8.431118 20.20328,-10.827658 7.7442,-1.98063 31.41114,-4.60073 32.42247,-3.58939 1.161,1.161 -11.55464,18.316138 -19.83983,26.766658 -11.46164,11.690335 -20.99543,15.797095 -28.67078,12.350175 z m 13.63808,-4.51676 c 7.60438,-3.879455 25.09223,-22.371213 25.09223,-26.532673 0,-1.47254 -0.70793,-1.61079 -5.25,-1.02525 -16.00277,2.06296 -28.2054,7.152678 -32.28108,13.464438 -1.25952,1.95054 -2.58912,5.4251 -2.95467,7.72125 -0.5482,3.443395 -0.30107,4.538365 1.41056,6.249995 2.6877,2.6877 8.84867,2.74156 13.98296,0.12224 z m 55.7688,-43.750503 c -2.24364,-0.58012 -1.97212,-1.3473 4.07441,-11.51222 13.4104,-22.54445 26.72908,-33.871594 39.67716,-33.744278 l 4.07186,0.04004 -3,1.581558 c -7.82465,4.12505 -13.25097,12.26107 -20.49235,30.72545 l -5.33873,13.61291 -8.58446,-0.116 c -4.72145,-0.0638 -9.405,-0.32816 -10.40789,-0.58746 z m 20.07343,-11.16361 c 3.7114,-10.11249 3.89834,-11.40541 1.58417,-10.95625 -2.02401,0.39284 -12.33417,15.43612 -12.33417,17.99645 0,1.44543 0.78298,1.82565 3.75,1.82099 l 3.75,-0.006 3.25,-8.85531 z M 187.69858,113.0683 c 14.1014,-6.23772 30.52068,-34.621903 30.62773,-52.946493 0.0502,-8.59479 -1.70408,-13.69199 -5.36365,-15.58443 -3.85476,-1.99337 -4.64932,-1.89057 -7.51182,0.97194 -4.33173,4.33173 -2.56457,9.48868 3.79545,11.07595 2.4508,0.61165 2.74817,1.13692 2.73318,4.82791 -0.0193,4.74892 -5.00142,17.72905 -10.06595,26.225218 -4.73163,7.93769 -13.1802,16.881175 -18.27848,19.349195 -5.54247,2.68306 -11.2068,2.7428 -12.60357,0.13291 -2.05369,-3.83737 -0.92573,-8.050425 5.80898,-21.697195 10.81592,-21.916618 12.94451,-31.121508 8.56591,-37.042438 -4.96393,-6.71243 -11.16557,-6.4959 -18.5779,0.64863 -3.75163,3.61609 -4.83217,5.35635 -4.83217,7.78242 0,4.42375 1.97236,5.18676 4.44479,1.71947 3.37317,-4.73047 6.36062,-7.47662 8.13359,-7.47662 1.40761,0 1.59455,0.82298 1.19253,5.25 -0.50481,5.55912 -2.8965,11.23739 -10.21369,24.2491 -5.39133,9.587048 -7.03109,16.027348 -5.51463,21.659073 1.32606,4.92461 7.17074,11.53264 11.32561,12.80481 4.19132,1.28333 10.81224,0.49313 16.33409,-1.94945 z m 271.90869,-0.1232 c 5.7757,-3.49333 11.04935,-13.890335 7.04556,-13.890335 -0.73891,0 -3.24069,2.249995 -5.55953,5.000005 -4.30659,5.10735 -7.63057,6.37908 -8.78822,3.3623 -2.22621,-5.80142 17.0967,-52.728523 29.20467,-70.925673 9.82589,-14.7674 22.05999,-24.074427 30.57772,-23.26183 3.0763,0.293481 3.38853,0.607528 3.20081,3.219408 -0.1144,1.591812 0.23188,3.716142 0.76952,4.720742 0.78771,1.47184 -0.0129,3.04586 -4.12313,8.10579 -7.55763,9.30397 -15.37818,23.12811 -20.97134,37.07037 -6.2711,15.63219 -9.06435,26.283508 -9.25669,35.297953 -0.18307,8.58006 1.5223,11.82893 7.00357,13.34239 3.1173,0.86072 4.4327,0.69189 7.97699,-1.02388 4.75269,-2.30074 10.30909,-9.09435 10.30909,-12.60458 0,-3.631345 -2.33663,-2.718425 -6.90299,2.69701 -4.30659,5.10735 -7.63057,6.37908 -8.78822,3.3623 -2.22621,-5.80142 17.0967,-52.728523 29.20467,-70.925673 9.82589,-14.7674 22.05999,-24.074427 30.57772,-23.26183 3.20681,0.305933 3.40882,0.544851 3.40882,4.031733 0,6.505717 6.38863,8.995757 11.0698,4.314577 2.89556,-2.89555 2.5519,-6.598575 -0.95228,-10.261215 -4.83992,-5.0587883 -19.84891,-4.9637253 -31.24957,0.197927 l -5.13205,2.323536 -2.38079,-2.380786 C 522.49103,8.0949657 513.89161,6.6370147 505.76453,8.0497937 484.42718,11.758991 465.28863,32.643797 451.59237,67.164777 c -5.95436,15.007758 -8.69738,25.651428 -8.88573,34.479053 -0.178,8.34221 1.55422,11.85784 6.54485,13.28314 3.75452,1.07227 6.02445,0.63785 10.35578,-1.98187 z m -206.11098,-0.6568 c 4.82736,-2.4619 9.68977,-6.49725 11.58595,-9.61527 l 1.76187,-2.897155 1.10735,4.112395 c 2.95045,10.95714 19.3035,14.06701 31.49766,5.98993 6.54189,-4.33316 9.54717,-9.908255 9.54717,-17.710955 0,-7.23805 -1.13841,-9.83802 -8.60899,-19.661718 -7.61386,-10.01209 -8.44267,-16.82132 -2.42618,-19.93257 2.93272,-1.51657 10.1396,-2.08043 11.33332,-0.8867 0.34732,0.34731 0.15102,1.52923 -0.43621,2.62649 -1.49291,2.78952 0.38048,6.51378 3.69503,7.34568 6.06304,1.52173 9.32515,-7.90688 4.50923,-13.03319 -3.00639,-3.20016 -11.18382,-5.00348 -16.88264,-3.72304 -6.06026,1.36165 -12.69336,5.62334 -15.28884,9.82292 -4.11155,6.65262 -2.50131,15.278 4.63534,24.82965 4.1607,5.568638 6.46994,11.307118 6.46994,16.077808 0,4.07688 -0.48398,5.141455 -3.88235,8.539845 -3.21414,3.21412 -4.57,3.88234 -7.87756,3.88234 -5.39318,0 -7.37704,-2.29211 -4.39136,-5.07369 2.69562,-2.51136 2.76012,-6.317455 0.15127,-8.926305 -2.97212,-2.97212 -7.33492,-2.57912 -10.28466,0.92645 -1.76368,2.09602 -2.769,2.61989 -3.54276,1.84613 -1.09359,-1.09359 -2.43193,-0.22998 -11.24949,7.259015 -3.7741,3.20544 -9.12082,4.63756 -13.35062,3.57595 -3.41214,-0.8564 -5.57247,-5.39746 -5.57247,-11.713495 0,-8.00152 2.50366,-10.53013 16.68072,-16.847018 14.3449,-6.39168 16.76988,-8.04979 19.44687,-13.29712 4.33937,-8.50586 2.13158,-18.10065 -4.57789,-19.89504 -3.85696,-1.03151 -11.9594,0.64149 -18.46191,3.81203 -7.06304,3.44385 -17.8174,14.22463 -21.82099,21.87457 -5.49971,10.508708 -6.21016,22.866028 -1.80442,31.385773 1.99218,3.85245 8.97566,9.90903 12.26241,10.63484 1.52636,0.33707 3.22521,0.77311 3.77521,0.96897 1.78852,0.63694 8.92535,-0.72949 12,-2.29752 z M 238.39067,75.527427 c 2.92162,-12.01301 13.93851,-23.47266 22.56578,-23.47266 2.76366,0 3.0395,0.29528 3.0361,3.25 -0.006,5.44405 -3.20948,9.20791 -12.51299,14.70307 -4.74982,2.80551 -9.8006,5.86397 -11.22395,6.79658 l -2.5879,1.69567 0.72296,-2.97266 z m 11.63311,27.852963 c 1.35988,-0.9209 4.402,-3.420825 6.76027,-5.555395 2.9404,-2.66148 4.86995,-3.69626 6.14046,-3.29301 1.24712,0.39582 2.84394,-0.40323 4.88531,-2.4446 2.47146,-2.47146 3.85904,-3.03262 7.49876,-3.03262 5.68159,0 8.73944,2.38281 9.56456,7.4531 0.34273,2.10609 1.43884,4.328215 2.4358,4.938065 1.48307,0.90722 2.18312,0.65708 3.85021,-1.37571 3.12262,-3.807615 1.94479,-8.622045 -4.56962,-18.678523 -3.07628,-4.74894 -5.59324,-9.2425 -5.59324,-9.98568 0,-2.24071 -2.60251,-1.51906 -3.77109,1.04569 -1.51669,3.32877 -6.56983,6.92259 -14.22891,10.119698 -11.08315,4.62639 -17.89874,8.39757 -19.40567,10.73748 -2.27126,3.52673 -3.12496,9.795805 -1.47616,10.840075 2.14947,1.36136 5.20213,1.06473 7.90932,-0.76857 z m -132.16723,14.38682 c -4.78225,-4.22083 -5.86026,-6.54723 -5.86026,-12.64671 0,-6.514175 -1.45753,-6.549455 -6.33527,-0.15333 -6.987724,9.16288 -17.375744,15.06119 -26.554934,15.07782 -6.848075,0.0124 -20.133495,-4.3221 -23.176965,-7.56173 -1.25481,-1.33567 -2.6439,-2.4285 -3.086865,-2.4285 -0.44297,0 -3.13089,1.7601 -5.973156,3.91133 -9.431781,7.13865 -18.885714,7.82326 -31.162567,2.25667 -8.3611157,-3.79111 -10.7011747,-7.17774 -10.7065107,-15.49492 -0.0033,-5.109505 0.356153,-6.186815 2.919339,-8.749995 2.3581057,-2.35811 3.7862897,-2.92308 7.3892157,-2.92308 5.681587,0 8.739441,2.38281 9.564554,7.4531 0.342734,2.10609 1.438845,4.328215 2.435803,4.938065 1.483068,0.90722 2.183124,0.65708 3.85021,-1.37571 3.119328,-3.803605 1.944258,-8.622865 -4.545121,-18.640693 -6.118884,-9.44589 -7.061056,-12.5692 -6.428715,-21.31122 0.533876,-7.38077 3.69305,-11.82923 10.979359,-15.46015 4.374272,-2.1798 6.583453,-2.60339 13.577621,-2.60339 11.628613,0 16.763453,2.94427 17.425813,9.99182 0.4715,5.01672 2.82518,4.92749 9.57105,-0.36285 8.661525,-6.79267 13.358855,-8.58113 22.606005,-8.607 12.724364,-0.0356 17.296984,3.46848 21.176594,16.22803 2.5599,8.41918 4.04675,7.69037 9.91686,-4.86095 11.93764,-25.52476 27.56445,-42.488524 43.7926,-47.5392923 8.02017,-2.496158 22.86579,-2.548693 27.75001,-0.0982 4.13797,2.076089 7.56442,7.7576143 8.51949,14.1265223 0.62129,4.14305 0.43408,4.77807 -2.03466,6.90159 -1.70216,1.46414 -3.32673,2.0836 -4.34433,1.65651 -0.89399,-0.37521 -2.97543,-1.13561 -4.62543,-1.68979 -7.40342,-2.48655 -9.5,-3.75116 -9.5,-5.73021 0,-4.63711 -9.06567,-0.0279 -17.22555,8.75784 -9.20355,9.90951 -21.19265,31.41943 -29.25326,52.483948 -4.01368,10.48882 -4.15855,14.74203 -0.50214,14.74203 1.08952,0 1.98095,-0.45 1.98095,-1 0,-1.90059 1.50826,-0.9742 3.73174,2.29206 2.82484,4.149655 2.32587,9.454775 -1.34149,14.262935 -4.13446,5.42056 -8.24756,7.45061 -15.00828,7.40745 -5.17286,-0.033 -6.32077,-0.42483 -9.52171,-3.25 z m 13.75072,-4.82211 c 5.7757,-3.49333 11.04935,-13.890335 7.04556,-13.890335 -0.73891,0 -3.24069,2.249995 -5.55953,5.000005 -4.30659,5.10735 -7.63057,6.37908 -8.78822,3.3623 -2.22621,-5.80142 17.0967,-52.728523 29.20467,-70.925673 9.82589,-14.7674 22.05999,-24.074427 30.57772,-23.26183 3.20681,0.305933 3.40882,0.544851 3.40882,4.031733 0,6.505717 6.38863,8.995757 11.0698,4.314577 4.97026,-4.970259 0.50728,-11.8353193 -8.8144,-13.5585263 -24.62318,-4.551843 -49.82602,17.9798763 -66.15932,59.1474263 -5.95436,15.007758 -8.69738,25.651428 -8.88573,34.479053 -0.178,8.34221 1.55422,11.85784 6.54485,13.28314 3.75452,1.07227 6.02445,0.63785 10.35578,-1.98187 z m -100.853097,0.76242 c 11.584371,-3.00495 18.242111,-10.8664 18.242111,-21.540275 0,-7.23805 -1.138411,-9.83802 -8.608992,-19.661718 -7.613857,-10.01209 -8.442672,-16.82132 -2.426181,-19.93257 2.89543,-1.49728 10.134467,-2.08556 11.301609,-0.91842 0.329874,0.32988 0.133577,1.62296 -0.436214,2.87351 -1.366657,2.99949 0.378292,6.28997 3.789622,7.14616 6.003303,1.50673 9.228543,-7.95856 4.446353,-13.04897 -3.00639,-3.20016 -11.183819,-5.00348 -16.88264,-3.72304 -6.060261,1.36165 -12.693355,5.62334 -15.288837,9.82292 -4.111546,6.65262 -2.50131,15.278 4.635344,24.82965 4.160692,5.568638 6.469936,11.307118 6.469936,16.077808 0,4.07688 -0.483979,5.141455 -3.882353,8.539845 -3.214132,3.21412 -4.569997,3.88234 -7.877555,3.88234 -5.393181,0 -7.377043,-2.29211 -4.391367,-5.07369 4.254312,-3.963495 1.275533,-10.926305 -4.674411,-10.926305 -2.886864,0 -6.3021587,2.88139 -7.5350097,6.35709 -2.056663,5.798215 3.9825857,13.657845 11.9249877,15.519495 5.462104,1.28029 5.389481,1.28174 11.193597,-0.22383 z m 52.242113,-1.21519 c 8.10384,-2.62393 18.623704,-12.899145 24.004394,-23.446175 3.19342,-6.25961 5.26097,-15.211628 5.31109,-22.995798 0.0865,-13.44061 -6.02474,-20.41842 -17.785894,-20.30778 -8.31407,0.0782 -15.59305,3.73885 -23.728725,11.93329 -11.56781,11.65138 -17.10229,23.595 -17.12315,36.952428 -0.0268,17.137185 10.93733,23.816855 29.322285,17.864035 z M 66.031461,106.1205 c -2.7248,-5.09135 -0.37197,-17.941565 5.43921,-29.706783 7.265145,-14.70888 16.436575,-24.35895 23.150765,-24.35895 3.83595,0 4.38047,1.16614 4.35749,9.33179 -0.0484,17.2067 -9.36583,38.292228 -19.56094,44.266953 -5.204445,3.05001 -11.879505,3.28287 -13.386525,0.46699 z m 9.83963,-2.501 c 9.125915,-4.719185 20.125195,-26.457843 20.125195,-39.774823 0,-6.50888 -4.33107,-4.4113 -11.36198,5.5027 -7.89872,11.13769 -13.638025,24.767928 -13.638025,32.388883 0,3.6831 0.79807,3.9914 4.87481,1.88324 z M 54.873011,73.852767 c 2.73524,-7.10375 2.12363,-9.27808 -2.625224,-9.33305 -3.601252,-0.0417 -6.251503,-1.98645 -6.251503,-4.58739 0,-1.03266 -0.642857,-1.87756 -1.428571,-1.87756 -2.209663,0 -4.571429,2.88072 -4.571429,5.57591 0,2.53673 9.724138,16.40194 11.5,16.39733 0.55,-0.001 2.069527,-2.78028 3.376727,-6.17524 z"
     id="path3126"
     inkscape:connector-curvature="0" />
  <path
     style="fill:#47a3da;fill-opacity:1;stroke:#47a3da;stroke-width:1.89999998;stroke-miterlimit:4;stroke-opacity:1;stroke-dasharray:none"
     d="m 331.10912,116.30626 c -10.77286,-3.51351 -16.37001,-10.97318 -16.29169,-21.712955 0.0865,-11.86185 7.39355,-22.875218 19.11931,-28.817108 9.86543,-4.99919 18.44377,-6.74757 35.90836,-7.3186 l 16.22951,-0.53065 5.64209,-9.07799 c 13.78838,-22.18519 25.25957,-33.56696 39.39522,-39.0881223 6.61687,-2.584445 18.3502,-2.48957 23.57057,0.190592 7.10301,3.6467203 8.08428,6.4929333 2.65001,7.6864993 -4.94321,1.08571 -12.34211,7.649701 -15.83445,14.047641 -3.40581,6.23943 -8.79231,23.26287 -8.21426,25.96025 0.29345,1.36934 0.72767,1.34554 3.75691,-0.20598 4.96961,-2.54533 5.91301,-4.56544 3.80142,-8.14008 -0.95315,-1.61355 -1.47176,-3.61455 -1.15245,-4.44665 1.5649,-4.07806 8.28088,-2.0963 9.59887,2.83246 1.82686,6.83177 -4.01014,14.24828 -13.034,16.56103 l -5.06004,1.29685 -1.58225,7.07106 c -3.86309,17.264128 -13.17308,41.571053 -15.92246,41.571053 -0.62465,0 -1.66687,-1.40718 -2.31606,-3.12706 -1.15186,-3.05162 -1.3079,-3.11629 -6.46923,-2.68088 -4.99492,0.42137 -7.60342,1.66829 -15.5858,7.45039 -1.5841,1.14745 -2.61831,1.34235 -3.33264,0.62802 -0.71432,-0.71432 0.55318,-2.52198 4.08439,-5.82501 2.81606,-2.6341 7.12525,-7.80542 9.57596,-11.491805 4.57383,-6.88003 15.44357,-28.467388 15.46,-30.703648 0.007,-0.91155 -2.49537,-1.2463 -9.24082,-1.23635 -5.0875,0.008 -10.22537,0.27529 -11.4175,0.59506 -1.43809,0.38575 -4.46674,4.45922 -9,12.10481 -11.93416,20.127653 -21.89037,29.914443 -34.8325,34.239793 -7.00151,2.33994 -15.93418,3.33246 -19.50647,2.16738 z m 14.90446,-10.19372 c 5.9156,-2.61676 19.89092,-16.921765 27.52729,-28.176703 3.25891,-4.80317 5.66867,-8.98966 5.35502,-9.3033 -1.01133,-1.01134 -24.67827,1.60876 -32.42247,3.58939 -9.37037,2.39654 -16.81627,6.38706 -20.20328,10.827658 -3.62587,4.75376 -4.24067,15.07336 -1.1881,19.942525 3.9836,6.35427 11.19167,7.42883 20.93154,3.12043 z m 78.18881,-59.655043 c 7.33194,-18.59407 12.59751,-26.489973 20.4132,-30.610297 l 3,-1.581558 -4.07186,-0.04004 c -12.94808,-0.127316 -26.26676,11.199825 -39.67716,33.744275 -2.57429,4.32768 -4.95442,8.58226 -5.28918,9.45463 -0.79985,2.08438 1.0356,2.502 11.625,2.64506 l 8.58681,0.116 5.41319,-13.72807 z M 121.37078,115.05777 c -4.85717,-1.38718 -6.68623,-4.9369 -6.57617,-12.76255 0.22123,-15.729505 10.97473,-44.632663 23.96596,-64.415473 6.80492,-10.3624 18.53713,-21.686518 26.4139,-25.495101 15.74104,-7.6111203 33.40269,-5.7932453 35.26645,3.6299 1.08265,5.47388 -4.0355,9.362141 -9.39906,7.140481 -3.05237,-1.26433 -3.20899,-1.567341 -3.34379,-6.46946 -0.0732,-2.66338 -0.46498,-3.03649 -3.49131,-3.325204 -8.51773,-0.812597 -20.75183,8.494427 -30.57772,23.261824 -12.10797,18.19715 -31.43088,65.124263 -29.20467,70.925683 1.15765,3.01678 4.48163,1.74505 8.78822,-3.3623 2.31884,-2.75001 4.82062,-5.000005 5.55953,-5.000005 4.00379,0 -1.26986,10.397005 -7.04556,13.890335 -4.33133,2.61972 -6.60126,3.05414 -10.35578,1.98187 z m 50.113,0.0908 c -4.15487,-1.27217 -9.99955,-7.8802 -11.32561,-12.80481 -1.51646,-5.631725 0.1233,-12.072025 5.51463,-21.659073 7.31719,-13.01171 9.70888,-18.68999 10.21369,-24.2491 0.40202,-4.42703 0.21508,-5.25 -1.19253,-5.25 -1.77297,0 -4.76042,2.74615 -8.13359,7.47662 -2.43436,3.41387 -4.44479,2.72059 -4.44479,-1.53278 0,-3.958 5.86839,-10.34628 11.46918,-12.48524 3.73395,-1.42601 4.72778,-1.4692 7.09649,-0.30843 4.61085,2.25952 6.9541,6.35621 6.78554,11.86314 -0.20501,6.69838 -2.52612,13.18321 -10.50705,29.355208 -6.73471,13.64677 -7.86267,17.859825 -5.80898,21.697195 1.39677,2.60989 7.0611,2.55015 12.60357,-0.13291 5.09828,-2.46802 13.54686,-11.411505 18.27849,-19.349195 5.06453,-8.496168 10.04666,-21.476298 10.06595,-26.225218 0.015,-3.69099 -0.28238,-4.21626 -2.73318,-4.82791 -6.36002,-1.58728 -8.12718,-6.74423 -3.79545,-11.07596 2.8625,-2.8625 3.65706,-2.96531 7.51182,-0.97193 5.72281,2.95938 7.15808,16.46421 3.09104,29.08442 -8.99193,27.902313 -28.80839,46.258453 -44.68922,41.395953 z m 277.88701,-0.0908 c -4.85717,-1.38718 -6.68623,-4.9369 -6.57617,-12.76255 0.22123,-15.729505 10.97473,-44.632663 23.96596,-64.415473 6.80492,-10.3624 18.53713,-21.686518 26.4139,-25.495101 12.33077,-5.9621863 27.26884,-6.3258933 32.79622,-0.798511 l 2.38079,2.380786 5.13205,-2.323536 c 11.18202,-5.0626603 26.03872,-5.2427523 31.21658,-0.378404 6.32333,5.940457 1.17475,15.134586 -6.65825,11.890046 -3.05237,-1.26433 -3.20899,-1.567341 -3.34379,-6.46946 -0.0732,-2.66338 -0.46498,-3.03649 -3.49131,-3.325204 -8.51773,-0.812597 -20.75183,8.494427 -30.57772,23.261824 -12.10797,18.19715 -31.43088,65.124263 -29.20467,70.925683 1.15765,3.01678 4.48163,1.74505 8.78822,-3.3623 4.56636,-5.415435 6.90299,-6.328355 6.90299,-2.69701 0,3.51023 -5.5564,10.30384 -10.30909,12.60458 -3.54429,1.71577 -4.85969,1.8846 -7.97699,1.02388 -6.74235,-1.86166 -8.53882,-7.93916 -6.24126,-21.114345 3.54431,-20.324538 16.39341,-48.490168 29.46875,-64.596368 4.10746,-5.05957 4.90776,-6.63406 4.1201,-8.105799 -0.53764,-1.004593 -0.88392,-3.128924 -0.76952,-4.720737 0.18772,-2.61188 -0.12451,-2.925927 -3.20081,-3.219408 -8.51773,-0.812597 -20.75183,8.494427 -30.57772,23.261824 -12.10797,18.19715 -31.43088,65.124263 -29.20467,70.925683 1.15765,3.01678 4.48163,1.74505 8.78822,-3.3623 2.31884,-2.75001 4.82062,-5.000005 5.55953,-5.000005 4.00379,0 -1.26986,10.397005 -7.04556,13.890335 -4.33133,2.61972 -6.60126,3.05414 -10.35578,1.98187 z M 19.679877,114.06215 C 8.5219473,111.4468 3.4679503,99.254735 11.274974,93.786475 c 3.090962,-2.16499 6.427132,-2.01439 8.840611,0.39909 2.608849,2.60885 2.544347,6.414945 -0.151275,8.926305 -2.985676,2.78158 -1.001814,5.07369 4.391367,5.07369 3.307558,0 4.663423,-0.66822 7.877555,-3.88234 3.398374,-3.39839 3.882353,-4.462965 3.882353,-8.539845 0,-4.77069 -2.309244,-10.50917 -6.469936,-16.077808 -7.136654,-9.55165 -8.74689,-18.17703 -4.635344,-24.82965 2.595482,-4.19958 9.228576,-8.46128 15.288837,-9.82293 5.698821,-1.28044 13.87625,0.52289 16.882641,3.72304 4.81592,5.12632 1.55381,14.55492 -4.509227,13.0332 -3.314554,-0.8319 -5.187939,-4.55617 -3.695036,-7.34568 0.587234,-1.09726 0.78353,-2.27918 0.436215,-2.6265 -1.193724,-1.19372 -8.400596,-0.62986 -11.333323,0.88671 -6.016491,3.11125 -5.187676,9.92048 2.426181,19.93257 7.470581,9.823698 8.608992,12.423668 8.608992,19.661718 0,10.673875 -6.65774,18.535325 -18.242111,21.540275 -5.804116,1.50557 -5.731493,1.50412 -11.193597,0.22383 z m 47.271786,0.20099 c -7.53102,-1.51026 -11.2166,-5.53811 -12.82424,-14.01516 -2.446144,-12.898465 3.38853,-28.269963 15.57057,-41.020753 8.906723,-9.32256 15.955373,-13.19119 24.307623,-13.34117 7.627494,-0.13696 12.456304,2.32799 15.826584,8.07894 2.25709,3.85142 2.64116,5.6475 2.59925,12.15525 -0.10216,15.86582 -7.68719,31.468418 -20.069544,41.283563 -7.07102,5.605 -17.554003,8.43481 -25.410243,6.85933 z m 12.585623,-8.47883 c 10.19511,-5.974725 19.5125,-27.060253 19.56094,-44.266953 0.023,-8.16566 -0.52154,-9.33179 -4.35749,-9.33179 -6.71419,0 -15.88562,9.65007 -23.150763,24.35895 -5.81118,11.765218 -8.16401,24.615433 -5.43921,29.706783 1.50702,2.81588 8.18208,2.58302 13.386523,-0.46699 z m 158.693784,7.92262 c -11.21797,-3.55587 -17.28904,-15.544145 -15.01686,-29.653105 1.38389,-8.593158 6.13671,-17.096928 13.93986,-24.941218 9.41426,-9.46392 22.70745,-15.15923 30.51122,-13.07218 6.70947,1.79439 8.91726,11.38918 4.57789,19.89504 -2.66773,5.22919 -5.26902,7.02124 -18.66116,12.85587 -6.36332,2.77234 -12.3306,6.124428 -14.21643,7.986008 -2.90459,2.86725 -3.25,3.80867 -3.25,8.85788 0,6.727745 2.08802,11.283335 5.57247,12.157885 4.2298,1.06161 9.57652,-0.37051 13.35062,-3.57595 8.625,-7.325455 10.17081,-8.337695 11.18458,-7.323925 0.68721,0.68721 1.9403,0.0905 3.87695,-1.84613 3.37407,-3.37408 7.17581,-3.70111 10.01538,-0.86154 2.60885,2.60885 2.54435,6.414945 -0.15127,8.926305 -2.98568,2.78158 -1.00182,5.07369 4.39136,5.07369 3.30756,0 4.66342,-0.66822 7.87756,-3.88234 3.39837,-3.39839 3.88235,-4.462965 3.88235,-8.539845 0,-4.77069 -2.30924,-10.50917 -6.46994,-16.077808 -7.13665,-9.55165 -8.74689,-18.17703 -4.63534,-24.82965 2.59548,-4.19958 9.22858,-8.46128 15.28884,-9.82293 5.69882,-1.28044 13.87625,0.52289 16.88264,3.72304 4.81592,5.12632 1.55381,14.55492 -4.50923,13.0332 -3.31455,-0.8319 -5.18794,-4.55617 -3.69503,-7.34568 0.58723,-1.09726 0.78353,-2.27918 0.43621,-2.6265 -1.19372,-1.19372 -8.4006,-0.62986 -11.33332,0.88671 -6.01649,3.11125 -5.18768,9.92048 2.42618,19.93257 7.47058,9.823698 8.60899,12.423668 8.60899,19.661718 0,7.802695 -3.00528,13.377795 -9.54717,17.710955 -12.19416,8.07708 -28.54721,4.96721 -31.49766,-5.98992 l -1.10735,-4.112405 -1.76187,2.897155 c -1.89618,3.11802 -6.75859,7.15337 -11.58595,9.61527 -4.60027,2.34608 -10.49046,2.83915 -15.38452,1.28783 z m 13.36779,-43.568293 c 9.30351,-5.49516 12.50673,-9.25902 12.51299,-14.70307 0.003,-2.95473 -0.27244,-3.25 -3.0361,-3.25 -8.62727,0 -19.64416,11.45964 -22.56578,23.47266 l -0.72296,2.97266 2.5879,-1.69567 c 1.42335,-0.93261 6.47413,-3.99107 11.22395,-6.79658 z"
     id="path3113"
     inkscape:connector-curvature="0"
     inkscape:export-filename="/home/gavin/Pictures/solvesAll/solvesAll.png"
     inkscape:export-xdpi="90"
     inkscape:export-ydpi="90" />
</svg>
